<?xml version="1.0" encoding="iso-8859-1"?>
<!-- Generator: Adobe Illustrator 18.0.0, SVG Export Plug-In . SVG Version: 6.00 Build 0)  -->
<!DOCTYPE svg PUBLIC "-//W3C//DTD SVG 1.1//EN" "http://www.w3.org/Graphics/SVG/1.1/DTD/svg11.dtd">
<svg version="1.1" id="Capa_1" xmlns="http://www.w3.org/2000/svg" xmlns:xlink="http://www.w3.org/1999/xlink" x="0px" y="0px"
	 viewBox="0 0 297.5 297.5" style="enable-background:new 0 0 297.5 297.5;" xml:space="preserve">
<g id="XMLID_25_">
	<g>
		<path style="fill:#7AC1A3;" d="M258.81,79.462c-3.72,15.62-8.6,30.51-12.12,34.04c-1.51,1.5-7.86,4.05-22.11,4.05
			c-1.34,0-2.63-0.03-3.84-0.07c-0.32-11.21,1.04-22.9,4.03-25.9C228.29,88.072,243.18,83.192,258.81,79.462z"/>
		<path style="fill:#7AC1A3;" d="M191.72,61.982c4.42,4.42,6.66,21.66,6.52,38.14c-15.42-0.84-31.38-3.77-36.13-8.52
			c-4.9-4.91-11.41-25.29-16.07-45.69C166.43,50.572,186.81,57.072,191.72,61.982z"/>
		<path style="fill:#C7A488;" d="M245.23,254.412H36.88c4.22-13.65,16.95-23.59,31.97-23.59c4.24,0,8.38,0.79,12.32,2.36
			c2.61,1.03,5.54,0.91,8.06-0.35c2.51-1.26,4.37-3.52,5.1-6.24c3.95-14.51,17.22-24.65,32.28-24.65c0.9,0,1.85,0.05,2.93,0.14
			c3.84,0.33,7.51-1.6,9.42-4.95c3.38-5.94,9.72-9.63,16.53-9.63c10.45,0,18.96,8.48,19.02,18.92c-0.01,0.12-0.01,0.25-0.01,0.38
			c-0.03,2.97,1.29,5.79,3.59,7.69c2.29,1.89,5.32,2.64,8.23,2.05c0.54-0.1,1.08-0.16,1.63-0.16c4,0,7.37,2.87,8.02,6.83
			c0.42,2.6,1.87,4.93,4.02,6.46c2.15,1.53,4.83,2.13,7.43,1.67c1.96-0.34,3.92-0.52,5.84-0.52
			C228.27,230.822,241.01,240.762,245.23,254.412z"/>
		<path d="M287.39,254.412c5.44,0,9.86,4.42,9.86,9.87c0,5.45-4.42,9.86-9.86,9.86H10.12c-5.45,0-9.87-4.41-9.87-9.86
			c0-5.45,4.42-9.87,9.87-9.87h6.47c4.64-24.63,26.3-43.32,52.26-43.32c3.37,0,6.7,0.31,9.98,0.94
			c8.6-17.58,26.47-29.32,46.48-29.81c7.3-9.04,18.38-14.46,30.18-14.46c18.13,0,33.39,12.51,37.6,29.36
			c2.61,0.48,5.1,1.33,7.41,2.48v-79.61c-15.53-0.53-41.09-3.18-52.34-14.44c-13.53-13.52-22.8-61.14-24.52-70.55
			c-0.58-3.19,0.44-6.46,2.73-8.76c2.29-2.29,5.57-3.31,8.75-2.72c9.41,1.72,57.04,10.99,70.56,24.51
			c5.68,5.69,8.82,15.38,10.5,25.54c14.72-8.94,44.02-14.84,53.64-16.6c3.19-0.59,6.46,0.43,8.75,2.72c2.29,2.3,3.31,5.57,2.73,8.76
			c-2.01,11.01-9.45,47.79-20.66,59c-6.61,6.61-18.41,9.83-36.06,9.83c-1.52,0-2.98-0.03-4.35-0.07v74.35
			c22.78,3.01,41.06,20.47,45.28,42.85H287.39z M246.69,113.502c3.52-3.53,8.4-18.42,12.12-34.04
			c-15.63,3.73-30.52,8.61-34.04,12.12c-2.99,3-4.35,14.69-4.03,25.9c1.21,0.04,2.5,0.07,3.84,0.07
			C238.83,117.552,245.18,115.002,246.69,113.502z M36.88,254.412h208.35c-4.22-13.65-16.96-23.59-31.97-23.59
			c-1.92,0-3.88,0.18-5.84,0.52c-2.6,0.46-5.28-0.14-7.43-1.67c-2.15-1.53-3.6-3.86-4.02-6.46c-0.65-3.96-4.02-6.83-8.02-6.83
			c-0.55,0-1.09,0.06-1.63,0.16c-2.91,0.59-5.94-0.16-8.23-2.05c-2.3-1.9-3.62-4.72-3.59-7.69c0-0.13,0-0.26,0.01-0.38
			c-0.06-10.44-8.57-18.92-19.02-18.92c-6.81,0-13.15,3.69-16.53,9.63c-1.91,3.35-5.58,5.28-9.42,4.95
			c-1.08-0.09-2.03-0.14-2.93-0.14c-15.06,0-28.33,10.14-32.28,24.65c-0.73,2.72-2.59,4.98-5.1,6.24c-2.52,1.26-5.45,1.38-8.06,0.35
			c-3.94-1.57-8.08-2.36-12.32-2.36C53.83,230.822,41.1,240.762,36.88,254.412z M198.24,100.122c0.14-16.48-2.1-33.72-6.52-38.14
			c-4.91-4.91-25.29-11.41-45.68-16.07c4.66,20.4,11.17,40.78,16.07,45.69C166.86,96.352,182.82,99.282,198.24,100.122z"/>
	</g>
	<g>
	</g>
</g>
<g>
</g>
<g>
</g>
<g>
</g>
<g>
</g>
<g>
</g>
<g>
</g>
<g>
</g>
<g>
</g>
<g>
</g>
<g>
</g>
<g>
</g>
<g>
</g>
<g>
</g>
<g>
</g>
<g>
</g>
</svg>
