<?xml version="1.0"?>
<svg xmlns="http://www.w3.org/2000/svg" xmlns:xlink="http://www.w3.org/1999/xlink" xmlns:svgjs="http://svgjs.com/svgjs" version="1.1" width="512" height="512" x="0" y="0" viewBox="0 0 497 497" style="enable-background:new 0 0 512 512" xml:space="preserve" class=""><g><g xmlns="http://www.w3.org/2000/svg"><path d="m82.773 262.639c-25.894-9.146-53.748-14.139-82.773-14.139 0 137.243 111.257 248.5 248.5 248.5z" fill="#bee070" data-original="#bee070" style=""/><path d="m82.773 262.639c4.897 130.662 77.218 234.361 165.727 234.361 0-108.218-69.183-200.262-165.727-234.361z" fill="#7ed65f" data-original="#7ed65f" style=""/><path d="m466.98 250.314-218.48 246.686c137.243 0 248.5-111.257 248.5-248.5-10.163 0-20.178.625-30.02 1.814z" fill="#348863" data-original="#348863" style=""/><path d="m466.98 250.314c-18.266 2.205-35.926 6.382-52.753 12.325l-165.727 234.361c120.141 0 217.621-110.28 218.48-246.686z" fill="#39aa59" data-original="#39aa59" style=""/><path d="m414.227 262.639c-96.544 34.099-165.727 126.143-165.727 234.361 88.509 0 160.83-103.699 165.727-234.361z" fill="#3dcc4e" data-original="#3dcc4e" style="" class=""/><path d="m317 0-68.5 327c5.175 0 10.349-1.337 14.992-4.011 42.128-24.263 158.508-101.805 158.508-217.989 0-57.99-47.01-105-105-105z" fill="#ca3d44" data-original="#ca3d44" style="" class=""/><path d="m392 105c0-57.99-33.579-105-75-105-26.176 0-50.112 9.58-68.5 25.423-18.388-15.843-42.324-25.423-68.5-25.423-57.99 0-105 47.01-105 105 0 116.184 116.38 193.726 158.507 217.989 4.643 2.674 9.818 4.011 14.993 4.011 4.28 0 8.56-1.337 12.4-4.011 34.843-24.263 131.1-101.805 131.1-217.989z" fill="#ff3a33" data-original="#ff3a33" style="" class=""/></g></g></svg>
