<?xml version="1.0"?>
<svg xmlns="http://www.w3.org/2000/svg" xmlns:xlink="http://www.w3.org/1999/xlink" xmlns:svgjs="http://svgjs.com/svgjs" version="1.1" width="512" height="512" x="0" y="0" viewBox="0 0 512 512" style="enable-background:new 0 0 512 512" xml:space="preserve"><g>
<path xmlns="http://www.w3.org/2000/svg" style="" d="M478.747,240.972c0-34.779-21.15-64.618-51.289-77.357c5.322-10.289,8.347-21.959,8.347-34.342  c0-41.349-33.52-74.87-74.87-74.87c-11.781,0-22.921,2.729-32.837,7.577c-8.811-31.544-37.741-54.693-72.097-54.693  s-63.286,23.149-72.097,54.694c-9.915-4.848-21.056-7.577-32.837-7.577c-41.349,0-74.87,33.52-74.87,74.87  c0,12.383,3.025,24.053,8.347,34.342c-30.139,12.739-51.289,42.578-51.289,77.357c0,45.073,35.535,81.799,80.112,83.81  c6.215,22.511,30.215,39.292,58.896,39.292c16.256,0,31.001-5.399,41.869-14.166c10.867,8.767,25.613,14.166,41.869,14.166  s31.001-5.399,41.869-14.166c10.867,8.767,25.613,14.166,41.869,14.166c28.682,0,52.682-16.782,58.896-39.292  C443.212,322.771,478.747,286.045,478.747,240.972z" fill="#129b12" data-original="#129b12"/>
<g xmlns="http://www.w3.org/2000/svg">
	<path style="" d="M251.511,7.435c-0.922,0.055-1.84,0.122-2.752,0.211c-0.279,0.027-0.557,0.058-0.836,0.088   c-0.98,0.106-1.955,0.228-2.924,0.372c-0.181,0.027-0.363,0.053-0.544,0.081c-1.153,0.18-2.298,0.38-3.433,0.611   c-0.002,0-0.004,0.001-0.006,0.001c19.654,3.997,38.056,17.686,49.714,34.941c8.256,12.219,22.362,19.262,37.074,18.262   c0.098-0.007,0.196-0.013,0.294-0.02c-8.81-31.546-37.74-54.695-72.096-54.695c-1.204,0-2.4,0.035-3.591,0.092   C252.11,7.393,251.811,7.417,251.511,7.435z" fill="#097c09" data-original="#097c09"/>
	<path style="" d="M427.457,163.615c5.323-10.289,8.347-21.959,8.347-34.342c0-41.349-33.52-74.87-74.87-74.87   c-5.131,0-10.141,0.519-14.981,1.504c34.165,6.944,59.879,37.151,59.879,73.366c0,12.383-3.025,24.053-8.347,34.342   c30.139,12.739,51.289,42.578,51.289,77.357c0,45.073-35.535,81.799-80.111,83.809c-5.094,18.45-22.139,33.044-43.913,37.712   c4.793,1.029,9.813,1.581,14.988,1.581c28.681,0,52.682-16.782,58.896-39.292c44.577-2.01,80.111-38.736,80.111-83.809   C478.747,206.193,457.598,176.355,427.457,163.615z" fill="#097c09" data-original="#097c09"/>
</g>
<path xmlns="http://www.w3.org/2000/svg" style="" d="M202.392,337.507c-6.752,11.452-34.735,24.258-45.112,24.986c1.142,0.245,2.299,0.459,3.465,0.649  c0.094,0.015,0.187,0.032,0.281,0.047c1.183,0.188,2.377,0.349,3.583,0.478c0.031,0.003,0.062,0.005,0.093,0.009  c1.085,0.115,2.182,0.197,3.285,0.263c0.269,0.016,0.537,0.031,0.807,0.044c1.149,0.055,2.304,0.092,3.47,0.092l0,0  c14.826,0,28.385-4.501,38.902-11.942l1.844-1.341l-9.391-15.408L202.392,337.507z" fill="#009000" data-original="#009000"/>
<path xmlns="http://www.w3.org/2000/svg" style="" d="M293.438,356.625l32.077-50.616c2.537-4.004,1.77-9.26-1.807-12.371l0,0  c-3.819-3.322-9.562-3.105-13.119,0.496l-23.623,23.916c-3.133,3.172-8.501,0.534-7.904-3.884l6.947-51.468  c0.742-5.499-3.323-10.479-8.859-10.853l-6.508-0.44c-4.891-0.33-9.244,3.08-10.093,7.907l-12.399,70.449  c-0.69,3.918-5.665,5.211-8.175,2.124l-38.834-47.759c-2.687-3.305-7.232-4.442-11.158-2.791l-6.799,2.858  c-5.383,2.263-7.513,8.77-4.509,13.777l39.907,66.518c5.779,9.633,8.162,20.934,6.717,32.074  c-5.172,39.888-11.596,77.507-37.887,108.151h137.185l0,0c-28.144-32.805-35.086-73.601-38.811-116.618  C284.827,377.049,287.503,365.99,293.438,356.625z" fill="#bf6101" data-original="#bf6101"/>
<path xmlns="http://www.w3.org/2000/svg" style="" d="M325.513,306.009c2.537-4.004,1.77-9.26-1.807-12.371l0,0c-3.819-3.322-9.562-3.105-13.119,0.496  l-10.55,10.68l0,0l-13.073,13.236c-3.133,3.172-8.5,0.534-7.904-3.884l6.947-51.468c0.724-5.36-3.125-10.214-8.447-10.803  l-19.533,121.408c-0.328,1.568-0.585,3.151-0.763,4.745l0,0l0,0c-0.372,3.318-0.422,6.683-0.131,10.046  c3.725,43.018,10.667,83.814,38.811,116.618l0,0h28.649l0,0c-28.144-32.805-35.086-73.601-38.811-116.618  c-0.956-11.046,1.719-22.105,7.654-31.47L325.513,306.009z" fill="#9a4d01" data-original="#9a4d01"/>
<path xmlns="http://www.w3.org/2000/svg" style="" d="M241.753,66.065c-21.005,0-39.087,12.467-47.284,30.399c-8.468-5.984-18.796-9.511-29.953-9.511  c-28.706,0-51.977,23.271-51.977,51.977c0,9.472,2.546,18.343,6.972,25.991c-24.926,3.832-44.014,25.371-44.014,51.37  c0,28.706,23.271,51.977,51.977,51.977s166.256-121.52,166.256-150.226S270.458,66.065,241.753,66.065z" fill="#28a528" data-original="#28a528"/>
<path xmlns="http://www.w3.org/2000/svg" style="" d="M437.094,160.109c3.984-9.778,5.998-20.118,5.998-30.835c0-2.173-0.086-4.369-0.256-6.524  c-0.316-4.012-3.827-7.005-7.836-6.692c-4.011,0.316-7.008,3.824-6.692,7.836c0.139,1.777,0.211,3.587,0.211,5.38  c0,10.904-2.534,21.332-7.532,30.994c-0.934,1.803-1.071,3.914-0.381,5.824s2.146,3.445,4.016,4.235  c28.454,12.027,46.84,39.757,46.84,70.645c0,41.064-32.133,74.68-73.154,76.53c-3.153,0.142-5.856,2.298-6.695,5.34  c-5.43,19.669-27.246,33.945-51.872,33.945c-11.734,0-22.926-3.123-32.145-8.889l24.074-37.99c1.687-2.662,2.553-5.613,2.643-8.553  c0.149-4.9-1.859-9.768-5.821-13.215c-6.703-5.832-16.843-5.447-23.086,0.873l-18.065,18.289l5.89-43.63  c0.622-4.613-0.709-9.326-3.652-12.931c-2.575-3.155-6.228-5.269-10.212-5.959c-0.569-0.098-1.145-0.168-1.725-0.207l-6.508-0.44  c-3.238-0.22-6.335,0.485-9.019,1.9c-4.474,2.358-7.805,6.692-8.742,12.014l-5.698,32.375l-5.698,32.374l-35.182-43.267  c-1.167-1.435-2.543-2.638-4.056-3.591c-0.009-0.006-0.018-0.013-0.027-0.019c-0.163-0.102-0.334-0.19-0.5-0.287  c-2.165-1.257-4.579-2.032-7.062-2.252c-0.079-0.007-0.16-0.006-0.239-0.012c-0.366-0.027-0.732-0.05-1.1-0.054  c-2.242-0.022-4.506,0.401-6.65,1.303l-6.799,2.858c-4.515,1.897-7.978,5.655-9.502,10.309c-1.524,4.655-0.953,9.733,1.567,13.934  l28.798,48c-8.59,4.588-18.647,7.068-28.958,7.068c-24.627,0-46.442-14.276-51.872-33.944c-0.84-3.043-3.543-5.198-6.695-5.34  c-41.021-1.85-73.154-35.466-73.154-76.531c0-30.889,18.386-58.619,46.84-70.645c1.87-0.79,3.326-2.325,4.016-4.235  s0.552-4.021-0.381-5.824c-4.998-9.662-7.532-20.09-7.532-30.994c0-37.265,30.318-67.583,67.583-67.583  c10.387,0,20.359,2.3,29.637,6.836c1.943,0.951,4.209,0.988,6.184,0.102c1.973-0.886,3.452-2.603,4.034-4.687  c8.118-29.067,34.88-49.368,65.079-49.368s56.961,20.301,65.079,49.368c0.583,2.084,2.061,3.802,4.034,4.687  c1.974,0.887,4.241,0.85,6.184-0.102c9.278-4.536,19.25-6.836,29.637-6.836c24.911,0,47.73,13.639,59.551,35.596  c1.907,3.543,6.327,4.869,9.87,2.961c3.544-1.907,4.869-6.327,2.961-9.87c-14.367-26.684-42.102-43.26-72.382-43.26  c-9.839,0-19.373,1.699-28.444,5.061C320.293,21.083,289.932,0,256.001,0s-64.292,21.083-76.49,52.179  c-9.071-3.362-18.605-5.061-28.444-5.061c-45.302,0-82.157,36.855-82.157,82.156c0,10.717,2.014,21.058,5.998,30.835  c-29.962,15.653-48.94,46.627-48.94,80.863c0,47.179,35.631,86.097,82.019,90.723c9.12,23.595,34.75,39.665,64.275,39.665  c12.944,0,25.62-3.214,36.457-9.142l3.611,6.018c4.926,8.212,6.965,17.938,5.74,27.389c-1.06,8.171-2.365,17.793-4.02,27.211  c-0.696,3.964,1.953,7.741,5.916,8.437c3.969,0.697,7.741-1.953,8.437-5.916c1.705-9.703,3.039-19.527,4.119-27.86  c1.645-12.691-1.087-25.746-7.695-36.759l-39.907-66.517c-0.472-0.786-0.337-1.53-0.214-1.904c0.122-0.374,0.454-1.053,1.298-1.408  l6.8-2.858c0.936-0.394,2.04-0.118,2.681,0.671l38.835,47.76c0.103,0.126,0.212,0.244,0.319,0.365  c1.443,1.64,3.238,2.819,5.211,3.466c2.096,0.688,4.386,0.778,6.651,0.205c0.025-0.006,0.05-0.01,0.076-0.017c0,0,0,0,0.001,0h0.001  c2.201-0.572,4.115-1.714,5.604-3.259c0.058-0.061,0.121-0.118,0.178-0.179c0.052-0.057,0.1-0.118,0.151-0.176  c1.428-1.611,2.418-3.615,2.813-5.862l12.399-70.449c0.205-1.164,1.274-1.977,2.426-1.901l6.509,0.44  c0.867,0.059,1.394,0.553,1.63,0.843c0.236,0.289,0.615,0.903,0.498,1.766l-6.947,51.469c-0.086,0.637-0.12,1.271-0.104,1.898  c0.108,4.389,2.632,8.422,6.667,10.404c0.288,0.142,0.58,0.271,0.875,0.387c1.473,0.584,3.019,0.858,4.55,0.837  c3.062-0.042,6.067-1.263,8.323-3.548l23.622-23.916c0.408-0.413,0.939-0.636,1.481-0.673c0.024-0.002,0.047-0.008,0.071-0.009  c0.012,0,0.024,0.002,0.036,0.002c0.414-0.009,0.83,0.089,1.201,0.302c0.127,0.073,0.249,0.159,0.364,0.259  c0.865,0.753,1.047,2.004,0.434,2.973l-32.077,50.616c-6.737,10.632-9.848,23.417-8.758,35.999  c3.052,35.249,8.341,74.994,31.324,108.703H202.105c8.224-12.196,14.614-26.071,19.392-42.043c1.153-3.855-1.037-7.916-4.893-9.069  c-3.857-1.153-7.917,1.037-9.069,4.893c-5.828,19.482-14.22,35.433-25.657,48.761c-1.853,2.16-2.279,5.202-1.09,7.788  c1.189,2.586,3.774,4.243,6.62,4.243h137.185c2.846,0,5.432-1.657,6.62-4.243c1.189-2.586,0.763-5.628-1.09-7.787  c-28.059-32.706-33.853-75.221-37.082-112.503c-0.815-9.421,1.51-18.99,6.549-26.941l0.204-0.323  c11.543,7.234,25.447,11.158,39.944,11.158c29.525,0,55.155-16.07,64.275-39.666c46.388-4.626,82.019-43.544,82.019-90.722  C486.034,206.736,467.055,175.762,437.094,160.109z" fill="#121419" data-original="#121419"/>
<g xmlns="http://www.w3.org/2000/svg">
</g>
<g xmlns="http://www.w3.org/2000/svg">
</g>
<g xmlns="http://www.w3.org/2000/svg">
</g>
<g xmlns="http://www.w3.org/2000/svg">
</g>
<g xmlns="http://www.w3.org/2000/svg">
</g>
<g xmlns="http://www.w3.org/2000/svg">
</g>
<g xmlns="http://www.w3.org/2000/svg">
</g>
<g xmlns="http://www.w3.org/2000/svg">
</g>
<g xmlns="http://www.w3.org/2000/svg">
</g>
<g xmlns="http://www.w3.org/2000/svg">
</g>
<g xmlns="http://www.w3.org/2000/svg">
</g>
<g xmlns="http://www.w3.org/2000/svg">
</g>
<g xmlns="http://www.w3.org/2000/svg">
</g>
<g xmlns="http://www.w3.org/2000/svg">
</g>
<g xmlns="http://www.w3.org/2000/svg">
</g>
</g></svg>
