<?xml version="1.0" encoding="iso-8859-1"?>
<!-- Generator: Adobe Illustrator 19.0.0, SVG Export Plug-In . SVG Version: 6.00 Build 0)  -->
<svg version="1.1" id="Capa_1" xmlns="http://www.w3.org/2000/svg" xmlns:xlink="http://www.w3.org/1999/xlink" x="0px" y="0px"
	 viewBox="0 0 511.999 511.999" style="enable-background:new 0 0 511.999 511.999;" xml:space="preserve">
<path style="fill:#A5DC69;" d="M87.477,97.566c-0.058,0.674-23.263,69.046,35.989,128.298s128.295,35.986,128.295,35.986
	s23.266-69.043-35.986-128.295S87.477,97.566,87.477,97.566z"/>
<path style="fill:#46C373;" d="M474.711,115.208c-0.709-0.061-72.726-24.503-135.136,37.907s-37.904,135.133-37.904,135.133
	s72.723,24.506,135.133-37.904S474.711,115.208,474.711,115.208z"/>
<path style="fill:#D7FA91;" d="M256.384,117.67l0.015-0.015c-0.041-0.232-5.417-53.939,24.423-83.225
	c29.857-29.287,82.641-24.093,82.874-24.072l0.008-0.008l-0.011,0.011l0.007-0.007l-0.009,0.009
	c0.042,0.447,6.641,55.269-23.15,84.506C310.628,124.228,256.384,117.67,256.384,117.67z"/>
<path style="fill:#C88C64;" d="M255.998,345.32c-30.418,0-56.766,17.349-69.743,42.68c-7.65-1.132-15.475-1.726-23.439-1.726
	c-72.753,0-134.069,48.953-152.818,115.715h492c-18.749-66.763-80.064-115.715-152.818-115.715c-7.965,0-15.79,0.594-23.439,1.726
	C312.764,362.669,286.416,345.32,255.998,345.32z"/>
<path d="M511.626,499.286c-9.752-34.722-30.949-66.016-59.689-88.117c-17.512-13.466-37.059-23.184-57.852-28.893
	c0.875-10.319,9.539-18.452,20.079-18.452c5.522,0,10-4.477,10-10s-4.478-10-10-10c-12.011,0-22.799,5.306-30.166,13.689
	c-7.367-8.383-18.155-13.689-30.166-13.689c-5.522,0-10,4.477-10,10s4.478,10,10,10c9.011,0,16.658,5.943,19.235,14.114
	c-7.844-1.102-15.818-1.663-23.886-1.663c-6.001,0-12.042,0.322-18.034,0.961c-13.956-22.635-37.096-37.597-63.227-41.113
	c0.066-0.062,0.136-0.117,0.201-0.181l36.53-36.53c6.546,1.542,17.89,3.578,32.182,3.578c3.083,0,6.307-0.095,9.645-0.31
	c25.422-1.639,62.956-10.822,97.398-45.264c34.441-34.442,43.626-71.976,45.265-97.399c1.782-27.633-4.676-47.182-4.952-48.001
	c-1.095-3.249-3.759-5.672-7.01-6.499l-0.107-0.031c-10.635-3.102-23.438-4.889-36.053-5.033c-0.039,0-0.077,0-0.116,0
	c-5.47,0-9.935,4.402-9.997,9.886c-0.063,5.522,4.362,10.05,9.885,10.114c10.975,0.125,19.831,1.595,25.758,2.958
	c1.539,6.783,3.731,19.897,2.578,36.153c-2.246,31.654-15.5,59.818-39.393,83.71s-52.057,37.146-83.709,39.391
	c-9.24,0.656-17.461,0.229-24.084-0.543l73.328-73.328c3.905-3.905,3.905-10.237,0-14.143c-3.906-3.905-10.236-3.905-14.143,0
	L307.8,267.977c-2.719-23.663-0.939-68.005,38.846-107.79c7.799-7.799,16.185-14.559,24.925-20.09
	c4.666-2.954,6.055-9.131,3.101-13.798c-2.952-4.666-9.129-6.055-13.798-3.102c-9.983,6.32-19.529,14.007-28.37,22.848
	c-34.441,34.442-43.625,71.976-45.263,97.398c-1.212,18.81,1.393,33.866,3.268,41.826l-24.511,24.509V128.27
	c1.154,0.027,2.375,0.043,3.673,0.043c19.603,0,54.684-3.546,77.872-26.307c31.171-30.59,26.993-84.005,26.143-92.215
	c-0.134-2.368-1.105-4.698-2.915-6.508c-1.781-1.781-4.069-2.749-6.4-2.904c-4.763-0.416-58.704-4.327-90.554,26.915
	c-28.681,28.149-28.375,74.571-27.578,88.214c-0.154,0.697-0.241,1.419-0.241,2.162v38.212
	c-5.921-9.809-13.485-19.731-23.152-29.398c-32.812-32.811-68.573-41.56-92.796-43.122c-26.334-1.698-44.984,4.465-45.766,4.728
	c-3.245,1.093-5.667,3.752-6.496,7l-0.026,0.09c-3.739,12.813-19.45,79.672,38.632,137.756
	c32.812,32.811,68.572,41.559,92.795,43.12c3.179,0.205,6.246,0.295,9.183,0.295c11.609,0,21.183-1.411,27.627-2.739v62.28
	c-26.916,3.026-50.852,18.157-65.148,41.345c-5.992-0.639-12.033-0.961-18.034-0.961c-8.068,0-16.042,0.561-23.886,1.663
	c2.577-8.171,10.224-14.114,19.235-14.114c5.522,0,10-4.477,10-10s-4.478-10-10-10c-12.011,0-22.799,5.306-30.166,13.689
	c-7.367-8.383-18.155-13.689-30.166-13.689c-5.522,0-10,4.477-10,10s4.478,10,10,10c10.541,0,19.205,8.133,20.079,18.452
	c-20.792,5.709-40.34,15.427-57.852,28.893c-28.74,22.101-49.938,53.395-59.689,88.117c-0.846,3.013-0.232,6.249,1.658,8.744
	s4.84,3.96,7.97,3.96h492c3.13,0,6.079-1.465,7.97-3.96S512.472,502.299,511.626,499.286z M287.824,41.569
	c19.444-19.073,51.296-21.544,66.449-21.548c0.415,15.549-1.245,48.581-20.739,67.712c-14.634,14.363-36.646,18.918-53.209,20.145
	l30.121-30.121c3.905-3.905,3.905-10.237,0-14.142c-3.906-3.905-10.236-3.905-14.143,0L266.689,93.23
	C268.31,76.978,273.363,55.761,287.824,41.569z M130.536,218.792c-44.802-44.802-38.877-95.099-34.842-113.054
	c6.494-1.449,18.757-3.444,33.899-2.361c29.91,2.133,56.526,14.666,79.109,37.249s35.115,49.199,37.247,79.107
	c0.02,0.271,0.03,0.534,0.048,0.803v15.792c-0.117,1.815-0.268,3.543-0.443,5.175l-58.362-58.363
	c-3.905-3.904-10.237-3.905-14.143,0c-3.905,3.905-3.905,10.237,0,14.143l58.366,58.366
	C208.818,258.044,167.596,255.851,130.536,218.792z M79.228,491.989c9.211-20.594,25.73-37.125,46.78-46.375
	c5.056-2.222,7.354-8.122,5.132-13.178c-2.223-5.056-8.124-7.354-13.179-5.131C89.592,439.772,67.976,463.102,57.7,491.99H23.823
	c21.743-56.97,77.108-95.715,138.992-95.715c7.325,0,14.719,0.544,21.976,1.619c4.24,0.626,8.409-1.517,10.364-5.333
	c11.767-22.97,35.08-37.24,60.843-37.24s49.076,14.27,60.843,37.24c1.956,3.816,6.13,5.96,10.364,5.333
	c7.257-1.074,14.65-1.619,21.976-1.619c61.884,0,117.249,38.745,138.992,95.715L79.228,491.989L79.228,491.989z"/>
<path d="M401.762,125.659c0.912,0,1.84-0.125,2.76-0.39l0.648-0.183c5.32-1.481,8.433-6.995,6.951-12.316
	c-1.482-5.321-7-8.432-12.316-6.951l-0.793,0.224c-5.31,1.521-8.38,7.059-6.858,12.368
	C393.411,122.8,397.413,125.659,401.762,125.659z"/>
<path d="M162.816,417.92l-0.62,0.002c-5.522,0.029-9.977,4.529-9.948,10.052c0.028,5.505,4.5,9.948,9.999,9.948
	c0.018,0,0.035,0,0.053,0l0.517-0.002c5.522,0,10-4.477,10-10S168.338,417.92,162.816,417.92z"/>
<g>
</g>
<g>
</g>
<g>
</g>
<g>
</g>
<g>
</g>
<g>
</g>
<g>
</g>
<g>
</g>
<g>
</g>
<g>
</g>
<g>
</g>
<g>
</g>
<g>
</g>
<g>
</g>
<g>
</g>
</svg>
