<?xml version="1.0"?>
<svg xmlns="http://www.w3.org/2000/svg" xmlns:xlink="http://www.w3.org/1999/xlink" xmlns:svgjs="http://svgjs.com/svgjs" version="1.1" width="512" height="512" x="0" y="0" viewBox="0 0 58 60" style="enable-background:new 0 0 512 512" xml:space="preserve" class=""><g><g xmlns="http://www.w3.org/2000/svg" id="Page-1" fill="none" fill-rule="evenodd"><g id="091---Seed" fill-rule="nonzero" transform="translate(0 -1)"><g id="Icons" transform="translate(1 1)"><path id="Shape" d="m37.1 34.37c-.28 6.43-1.85 16.63-8.54 21.44-7.83 5.67-20.39 2.42-25.82.59-1.63017633-.5410335-2.73296732-2.0624021-2.74-3.78 0-5.73.78-18.67 8.61-24.34 6.68-4.84 16.8-3.18 23-1.46.1002116.4249815.173689.8558261.22 1.29.2002025 1.6759224-.088019 3.3739983-.83 4.89.9666967.0193433 1.9300702.1196947 2.88.3 1.1210701.1925668 2.206639.5532993 3.22 1.07z" fill="#a0522d" data-original="#a0522d" style=""/><path id="Shape" d="m33.88 33.3c-.9499298-.1803053-1.9133033-.2806567-2.88-.3.741981-1.5160017 1.0302025-3.2140776.83-4.89-.046311-.4341739-.1197884-.8650185-.22-1.29-4.2186741-1.2378812-8.6050471-1.8081097-13-1.69 3.3853247.1940056 6.7389291.7607647 10 1.69.1002116.4249815.173689.8558261.22 1.29.2002025 1.6759224-.088019 3.3739983-.83 4.89.9666967.0193433 1.9300702.1196947 2.88.3 1.1210701.1925668 2.206639.5532993 3.22 1.07-.28 6.43-1.85 16.63-8.54 21.44-2.9418099 2.0038186-6.4014286 3.1118692-9.96 3.19 4.54.21 9.27-.47 13-3.14 6.69-4.85 8.26-15 8.54-21.44-1.0229951-.5378538-2.1224507-.9155809-3.26-1.12z" fill="#783e22" data-original="#783e22" style=""/><path id="Shape" d="m49.46 18.55v.15c-.040057.704535-.6051787 1.2653428-1.31 1.3l-.68.05c-3.13.17-9.43 0-13.3-3.79-4.17-4.02-4.28-11.02-4.17-13.83.0148059-.71849641.582282-1.30343325 1.3-1.34 2.8-.23 9.81-.32 14 3.74s4.31 10.82 4.16 13.72z" fill="#a4c400" data-original="#a4c400" style=""/><path id="Shape" d="m45.33 4.83c-3.86-3.75-10.14-3.96-13.28-3.83 3.26.18 7.43 1 10.28 3.79 4.1 4 4.28 10.82 4.13 13.72v.15c-.0199679.7201277-.5905089 1.3037345-1.31 1.34l-.67.05c.999358.050674 2.000642.050674 3 0l.68-.05c.7194911-.0362655 1.2900321-.6198723 1.31-1.34v-.15c.14-2.86-.04-9.69-4.14-13.68z" fill="#90ac00" data-original="#90ac00" style=""/><path id="Shape" d="m55.3 30.37c-1.52 3.21-5.46 5.18-10.13 3.58-.9118225-.3333476-1.7811579-.77305-2.59-1.31-.8531904-.7213066-1.8332244-1.2774504-2.89-1.64-1.0504164-.1863387-2.1329658-.0211445-3.08.47-.9793596.4995654-1.8958011 1.1138834-2.73 1.83-.9499298-.1803053-1.9133033-.2806567-2.88-.3.741981-1.5160017 1.0302025-3.2140776.83-4.89 3.32-3.79 8.07-5 12.17-3.06.6968047.3167655 1.365816.6914118 2 1.12 1.13.68 3.25 1.5 3.66.68.1388639-.7328606.0766621-1.4896484-.18-2.19-.5418819-1.5749522-1.2107461-3.1033069-2-4.57l.68-.05c.7194911-.0362655 1.2900321-.6198723 1.31-1.34v-.15c4.88 1.92 7.99 7.25 5.83 11.82z" fill="#60a917" data-original="#60a917" style=""/><path id="Shape" d="m49.46 18.55v.15c-.0197381.4625611-.2717656.8838608-.67 1.12 3.47 2.46 5.3 6.76 3.51 10.55-1.0474301 2.1322052-3.0644355 3.6235216-5.41 4 3.3867552.734125 6.8423564-.9094428 8.41-4 2.16-4.57-.95-9.9-5.84-11.82z" fill="#549414" data-original="#549414" style=""/><path id="Shape" d="m4 53.61c-.55228475 0-1-.4477153-1-1 0-3.86.35-16.85 7.35-21.92 2.42-1.69 5.65-2.6 9.75-2.6.5522847 0 1 .4477153 1 1s-.4477153 1-1 1c-3.63 0-6.5.75-8.56 2.24-6.38 4.67-6.54 17.67-6.54 20.27 0 .5522847-.44771525 1-1 1z" fill="#481212" data-original="#f5f5f5" style="" class=""/></g><g id="Icons_copy" fill="#000"><path id="Shape" d="m26.62 52.76c-2.05 1.49-4.92 2.24-8.55 2.24-.5522847 0-1 .4477153-1 1s.4477153 1 1 1c4.06 0 7.33-.88 9.73-2.62.4473506-.325848.545848-.9526493.22-1.4-.325848-.4473506-.9526494-.545848-1.4-.22z" fill="#000000" data-original="#000000" style=""/><path id="Shape" d="m51.49 18.92c.07-3.33-.37-9.83-4.47-13.81-4.46-4.34-11.8-4.26-14.76-4.02-1.2354404.05674007-2.2195557 1.05391878-2.26 2.29-.15 3 0 10.3 4.43 14.64 3.57 3.46 9 4.11 12.5 4.11h.89c.6658734 1.2400817 1.2245721 2.5347906 1.67 3.87.1236981.4041595.2074328.8194834.25 1.24-.798799-.1487657-1.5622305-.4473522-2.25-.88l-.38-.24c-.5386192-.3529324-1.1036237-.663852-1.69-.93-4.0264897-1.822926-8.7530232-1.0588031-12 1.94-.1499371-.5227033-.3370815-1.0340088-.56-1.53-.1198653-.238147-.3298663-.4185688-.5833539-.501187-.2534875-.0826182-.5294717-.0605915-.7666461.061187-.4699321.2410556-.6713833.8059947-.46 1.29-6.89-1.74-15.78-2.45-22.05 2.02-8.24 5.98-9 19.59-9 25.16.0102111 2.143829 1.38599139 4.0425667 3.42 4.72 4.71376666 1.6344514 9.6523914 2.5283964 14.64 2.65 4.26 0 8.61-.84 12.09-3.36 6.48-4.7 8.34-14.07 8.83-20.31l.19.24c.1885255.2717806.4992449.4327557.83.43.1994427.0004453.3944627-.0587572.56-.17.4528266-.308376.5732166-.9237025.27-1.38-.5674021-.8058255-1.3224839-1.4613738-2.2-1.91l-.15-.09c-.4296031-.2205607-.8740056-.4110189-1.33-.57.2866716-.1838645.5838451-.3508158.89-.5.7488323-.3933103 1.6070267-.5269635 2.44-.38.6650533.2138332 1.2828926.5533053 1.82 1 .24.18.49.36.74.52.8791631.5794391 1.822018 1.0558996 2.81 1.42 1.1612644.4041554 2.3804855.6169281 3.61.63 2.8321779.0791424 5.5099565-1.2884302 7.1062377-3.6292381 1.5962812-2.3408078 1.8916192-5.3330525.7837623-7.9407619-1.1201028-2.690911-3.2121783-4.8615286-5.86-6.08zm-15.62-2.34c-3.87-3.77-3.97-10.41-3.87-13.1-.005492-.10420062.0321058-.20607491.1039735-.28172516.0718678-.07565025.1716814-.11841947.2760265-.11827484.62-.08 1.34-.08 2.18-.08 3.2 0 8 .57 11.07 3.55s3.74 7.61 3.85 10.81c-1.7-3-5.19-7.52-12-11.24-.3143937-.17863279-.700205-.17596925-1.0121024.0069873s-.5024963.51841065-.5.88c.0024964.36158934.1977087.69437991.5121024.8730127 8 4.38 11.09 9.84 12.09 12.2-2.88.18-9.03.07-12.7-3.5zm-6.87 39.42c-7.53 5.45-19.94 2.13-24.92.45-1.23425246-.3976458-2.0733159-1.5432901-2.08-2.84 0-5.26.69-18.08 8.2-23.52 6.25-4.53 16-2.95 21.56-1.46.3145901 1.6673244.0867924 3.3915778-.65 4.92-.1559692.3095182-.1405453.6777279.0407631.9731178.1813083.29539.5026437.4758333.8492369.4768822 1.7362902.0266303 3.4536334.3653568 5.07 1-.33 5.78-1.84 15.47-8.07 20zm26.4-25.06c-1.2 2.53-4.5 4.57-8.9 3.07-.8382298-.3123837-1.6370012-.721838-2.38-1.22l-.66-.45c-.7493649-.6220849-1.621769-1.0787339-2.56-1.34-1.2633183-.2396266-2.570537-.0458341-3.71.55-.9195799.4587233-1.7849606 1.0188729-2.58 1.67l-1.16-.16c.3652523-1.1663248.5077321-2.3909734.42-3.61 3-3.18 7.14-4.17 10.74-2.5.5024402.2241051.984282.491795 1.44.8l.4.25c.1.06 2.53 1.52 4.06 1.09.4308761-.1203421.7928069-.413506 1-.81.3085699-.957384.262427-1.9938248-.13-2.92-.3660453-1.20156-.8275137-2.371951-1.38-3.5.2123192-.083697.4111269-.1982641.59-.34.188799-.1589531.3538138-.3441737.49-.55 1.976587 1.0206292 3.5333465 2.7012219 4.4 4.75.6978734 1.6759011.6689022 3.5662717-.08 5.22z" fill="#000000" data-original="#000000" style=""/></g></g></g></g></svg>
