<?xml version="1.0"?>
<svg xmlns="http://www.w3.org/2000/svg" xmlns:xlink="http://www.w3.org/1999/xlink" xmlns:svgjs="http://svgjs.com/svgjs" version="1.1" width="512" height="512" x="0" y="0" viewBox="0 0 511.99895 511" style="enable-background:new 0 0 512 512" xml:space="preserve" class=""><g><path xmlns="http://www.w3.org/2000/svg" d="m7.632812 257.496094v-249.367188l165.429688 20.351563v437l-165.429688-20.347657v-157.113281" fill="#ffffff" data-original="#f9e075" style="" class=""/><path xmlns="http://www.w3.org/2000/svg" d="m338.714844 445.132812-165.429688 20.347657v-437l165.429688-20.351563zm0 0" fill="#8b6dff" data-original="#f9cd45" style="" class=""/><path xmlns="http://www.w3.org/2000/svg" d="m149.660156 25.601562v436.828126l-142.027344-17.472657v.175781l165.429688 20.347657v-437zm0 0" fill="#8b6dff" data-original="#f9cd45" style="" class=""/><path xmlns="http://www.w3.org/2000/svg" d="m504.367188 465.480469-165.429688-20.347657v-437.003906l165.429688 20.351563zm0 0" fill="#ffffff" data-original="#f9e075" style="" class=""/><path xmlns="http://www.w3.org/2000/svg" d="m481.542969 25.671875v437l22.824219 2.808594v-437zm0 0" fill="#8b6dff" data-original="#f9cd45" style="" class=""/><path xmlns="http://www.w3.org/2000/svg" d="m139.816406 414.371094-96.082031-12.21875v-109.386719l96.082031 12.21875zm0 0" fill="#b4acd6" data-original="#f195d6" style="" class=""/><path xmlns="http://www.w3.org/2000/svg" d="m116.414062 302.007812v109.308594l-72.679687-9.238281v.074219l96.082031 12.21875v-109.386719zm0 0" fill="#ffffff" data-original="#e480be" style="" class=""/><path xmlns="http://www.w3.org/2000/svg" d="m469.695312 183.503906-96.085937-12.21875v-109.386718l96.085937 12.21875zm0 0" fill="#b4acd6" data-original="#f195d6" style="" class=""/><path xmlns="http://www.w3.org/2000/svg" d="m446.292969 71.140625v109.308594l-72.683594-9.242188v.078125l96.085937 12.21875v-109.386718zm0 0" fill="#ffffff" data-original="#e480be" style="" class=""/><path xmlns="http://www.w3.org/2000/svg" d="m469.695312 421.160156-96.085937-12.21875v-109.382812l96.085937 12.214844zm0 0" fill="#ccc6e6" data-original="#a3e2ee" style="" class=""/><path xmlns="http://www.w3.org/2000/svg" d="m446.292969 308.796875v109.308594l-72.683594-9.242188v.078125l96.085937 12.21875v-109.386718zm0 0" fill="#ffffff" data-original="#65cee3" style="" class=""/><path xmlns="http://www.w3.org/2000/svg" d="m209.355469 257.777344 96.082031-12.214844v-131.769531l-96.082031 12.214843zm0 0" fill="#ffffff" data-original="#65cee3" style="" class=""/><g xmlns="http://www.w3.org/2000/svg" fill="#18191b"><path d="m505.300781 20.90625-67.511719-8.304688c-4.183593-.519531-7.992187 2.460938-8.507812 6.640626-.515625 4.183593 2.460938 7.992187 6.644531 8.507812l60.8125 7.480469v421.625l-150.171875-18.472657v-421.625l59.265625 7.289063c4.183594.515625 7.992188-2.457031 8.503907-6.640625.515624-4.183594-2.457032-7.992188-6.640626-8.507812l-67.828124-8.34375c-.34375-.039063-.6875-.050782-1.027344-.046876-.347656-.003906-.699219.003907-1.054688.046876l-164.613281 20.25-164.609375-20.25c-2.164062-.265626-4.347656.410156-5.988281 1.859374-1.636719 1.449219-2.574219 3.53125-2.574219 5.714844v249.367188c0 4.214844 3.417969 7.628906 7.632812 7.628906 4.210938 0 7.628907-3.414062 7.628907-7.628906v-240.738282l150.171875 18.472657v421.625l-150.171875-18.472657v-150.363281c0-4.214843-3.417969-7.632812-7.628907-7.632812-4.214843 0-7.632812 3.417969-7.632812 7.632812v157.113281c0 3.851563 2.875 7.101563 6.699219 7.574219l165.433593 20.347657c.308594.039062.621094.058593.929688.058593.554688 0 1.105469-.070312 1.640625-.1875.023437 0 .042969.003907.066406.003907.308594 0 .625-.019532.941407-.058594l163.113281-20.066406 164.613281 20.25c.308594.039062.621094.058593.929688.058593 1.851562 0 3.652343-.675781 5.054687-1.914062 1.640625-1.449219 2.578125-3.53125 2.578125-5.71875v-437c0-3.855469-2.875-7.101563-6.699219-7.574219zm-324.605469 14.351562 150.609376-18.527343v421.625l-150.609376 18.523437zm0 0" fill="#2e2e2e" data-original="#18191b" style="" class=""/><path d="m36.101562 292.765625v109.386719c0 3.84375 2.855469 7.085937 6.667969 7.570312l96.085938 12.214844c.320312.042969.640625.0625.960937.0625 1.847656 0 3.644532-.671875 5.042969-1.90625 1.644531-1.449219 2.589844-3.535156 2.589844-5.726562v-109.382813c0-3.84375-2.859375-7.085937-6.671875-7.570313l-96.082032-12.214843c-2.167968-.277344-4.363281.394531-6.007812 1.839843-1.644531 1.449219-2.585938 3.535157-2.585938 5.726563zm15.261719 8.664063 80.824219 10.277343v94l-80.824219-10.277343zm0 0" fill="#2e2e2e" data-original="#18191b" style="" class=""/><path d="m477.324219 74.117188c0-3.84375-2.855469-7.085938-6.667969-7.570313l-96.085938-12.21875c-2.167968-.273437-4.359374.394531-6.003906 1.84375-1.644531 1.449219-2.585937 3.535156-2.585937 5.726563v109.386718c0 3.84375 2.855469 7.085938 6.667969 7.570313l96.082031 12.214843c.324219.042969.644531.0625.964843.0625 1.84375 0 3.640626-.671874 5.042969-1.90625 1.644531-1.449218 2.585938-3.535156 2.585938-5.726562zm-15.261719 100.722656-80.820312-10.277344v-94l80.820312 10.277344zm0 0" fill="#2e2e2e" data-original="#18191b" style="" class=""/><path d="m365.980469 299.558594v109.382812c0 3.84375 2.855469 7.085938 6.667969 7.570313l96.082031 12.21875c.324219.039062.644531.058593.964843.058593 1.84375 0 3.640626-.671874 5.042969-1.902343 1.644531-1.449219 2.585938-3.535157 2.585938-5.726563v-109.386718c0-3.84375-2.855469-7.085938-6.667969-7.570313l-96.085938-12.214844c-2.167968-.277343-4.359374.394531-6.003906 1.84375-1.644531 1.449219-2.585937 3.535157-2.585937 5.726563zm15.261719 8.660156 80.820312 10.277344v94l-80.820312-10.277344zm0 0" fill="#2e2e2e" data-original="#18191b" style="" class=""/><path d="m310.480469 108.066406c-1.644531-1.449218-3.832031-2.117187-6.003907-1.84375l-96.085937 12.214844c-3.8125.484375-6.667969 3.730469-6.667969 7.570312v131.769532c0 2.191406.941406 4.277344 2.585938 5.726562 1.402344 1.234375 3.199218 1.90625 5.042968 1.90625.320313 0 .644532-.019531.964844-.0625l96.082032-12.214844c3.8125-.484374 6.671874-3.726562 6.671874-7.570312v-131.769531c0-2.191407-.945312-4.277344-2.589843-5.726563zm-12.671875 130.773438-80.824219 10.277344v-116.386719l80.824219-10.277344zm0 0" fill="#2e2e2e" data-original="#18191b" style="" class=""/><path d="m45.945312 74.457031 89.800782 11.046875c.316406.039063.628906.058594.941406.058594 3.796875 0 7.085938-2.832031 7.5625-6.699219.515625-4.183593-2.457031-7.992187-6.640625-8.507812l-89.800781-11.042969c-4.183594-.519531-7.992188 2.457031-8.507813 6.640625s2.460938 7.992187 6.644531 8.503906zm0 0" fill="#2e2e2e" data-original="#18191b" style="" class=""/><path d="m209.882812 90.652344c.308594 0 .625-.019532.941407-.058594l89.800781-11.046875c4.183594-.515625 7.15625-4.324219 6.640625-8.507813-.511719-4.183593-4.320313-7.15625-8.503906-6.640624l-89.800781 11.046874c-4.183594.515626-7.15625 4.320313-6.644532 8.503907.476563 3.867187 3.765625 6.703125 7.566406 6.703125zm0 0" fill="#2e2e2e" data-original="#18191b" style="" class=""/><path d="m298.761719 294.933594-89.804688 11.046875c-4.179687.511719-7.15625 4.320312-6.640625 8.503906.476563 3.867187 3.765625 6.699219 7.566406 6.699219.308594 0 .625-.019532.941407-.058594l89.800781-11.042969c4.183594-.515625 7.15625-4.324219 6.640625-8.507812-.515625-4.179688-4.320313-7.15625-8.503906-6.640625zm0 0" fill="#2e2e2e" data-original="#18191b" style="" class=""/><path d="m298.761719 341.738281-89.804688 11.042969c-4.179687.515625-7.15625 4.324219-6.640625 8.507812.476563 3.867188 3.765625 6.699219 7.566406 6.699219.308594 0 .625-.019531.941407-.058593l89.800781-11.042969c4.183594-.515625 7.15625-4.324219 6.640625-8.507813-.515625-4.179687-4.320313-7.15625-8.503906-6.640625zm0 0" fill="#2e2e2e" data-original="#18191b" style="" class=""/><path d="m298.761719 388.542969-89.804688 11.042969c-4.179687.515624-7.15625 4.324218-6.640625 8.507812.476563 3.867188 3.765625 6.699219 7.566406 6.699219.308594 0 .625-.019531.941407-.058594l89.800781-11.042969c4.183594-.515625 7.15625-4.324218 6.640625-8.507812-.515625-4.179688-4.320313-7.15625-8.503906-6.640625zm0 0" fill="#2e2e2e" data-original="#18191b" style="" class=""/><path d="m45.945312 119.226562 89.800782 11.046876c.316406.039062.628906.058593.941406.058593 3.796875 0 7.085938-2.832031 7.5625-6.699219.515625-4.183593-2.457031-7.992187-6.640625-8.507812l-89.800781-11.046875c-4.183594-.515625-7.992188 2.460937-8.507813 6.644531s2.460938 7.992188 6.644531 8.503906zm0 0" fill="#2e2e2e" data-original="#18191b" style="" class=""/><path d="m378.960938 225.628906 89.800781 11.046875c.316406.039063.632812.058594.941406.058594 3.800781 0 7.089844-2.835937 7.566406-6.703125.515625-4.179688-2.460937-7.988281-6.644531-8.503906l-89.796875-11.046875c-4.183594-.515625-7.992187 2.460937-8.507813 6.644531-.515624 4.183594 2.457032 7.988281 6.640626 8.503906zm0 0" fill="#2e2e2e" data-original="#18191b" style="" class=""/><path d="m378.960938 270.398438 89.800781 11.046874c.316406.039063.632812.058594.941406.058594 3.800781 0 7.089844-2.835937 7.566406-6.703125.515625-4.179687-2.460937-7.988281-6.644531-8.503906l-89.796875-11.046875c-4.183594-.515625-7.992187 2.460938-8.507813 6.644531-.515624 4.183594 2.457032 7.988281 6.640626 8.503907zm0 0" fill="#2e2e2e" data-original="#18191b" style="" class=""/><path d="m45.945312 163.996094 89.800782 11.046875c.316406.039062.628906.058593.941406.058593 3.796875 0 7.085938-2.832031 7.5625-6.699218.515625-4.183594-2.457031-7.992188-6.640625-8.507813l-89.800781-11.046875c-4.183594-.515625-7.992188 2.460938-8.507813 6.644532-.515625 4.183593 2.460938 7.992187 6.644531 8.503906zm0 0" fill="#2e2e2e" data-original="#18191b" style="" class=""/><path d="m45.945312 208.765625 89.800782 11.046875c.316406.039062.628906.058594.941406.058594 3.796875 0 7.085938-2.832032 7.5625-6.699219.515625-4.183594-2.457031-7.992187-6.640625-8.507813l-89.800781-11.046874c-4.183594-.515626-7.992188 2.460937-8.507813 6.644531-.515625 4.183593 2.460938 7.992187 6.644531 8.503906zm0 0" fill="#2e2e2e" data-original="#18191b" style="" class=""/><path d="m45.945312 253.535156 89.800782 11.046875c.316406.039063.628906.058594.941406.058594 3.796875 0 7.085938-2.832031 7.5625-6.699219.515625-4.183594-2.457031-7.992187-6.640625-8.503906l-89.800781-11.046875c-4.183594-.519531-7.992188 2.457031-8.507813 6.640625s2.460938 7.992188 6.644531 8.503906zm0 0" fill="#2e2e2e" data-original="#18191b" style="" class=""/></g></g></svg>
