<?xml version="1.0"?>
<svg xmlns="http://www.w3.org/2000/svg" xmlns:xlink="http://www.w3.org/1999/xlink" xmlns:svgjs="http://svgjs.com/svgjs" version="1.1" width="512" height="512" x="0" y="0" viewBox="0 0 64 64" style="enable-background:new 0 0 512 512" xml:space="preserve" class=""><g><path xmlns="http://www.w3.org/2000/svg" d="m7 2h40v53h-40z" fill="#8b6dff" data-original="#c9c6ca" style="" class=""/><path xmlns="http://www.w3.org/2000/svg" d="m28 45h11v2h-11z" fill="#6b44ff" data-original="#aa8058" style="" class=""/><path xmlns="http://www.w3.org/2000/svg" d="m28 41h10v2h-10z" fill="#6b44ff" data-original="#aa8058" style="" class=""/><path xmlns="http://www.w3.org/2000/svg" d="m11 6h14v18h-14z" fill="#ffffff" data-original="#cdf5a0" style="" class=""/><path xmlns="http://www.w3.org/2000/svg" d="m11 30h14v18h-14z" fill="#ffffff" data-original="#cdf5a0" style="" class=""/><circle xmlns="http://www.w3.org/2000/svg" cx="18" cy="36" fill="#bfafff" r="2" data-original="#e3aa75" style="" class=""/><path xmlns="http://www.w3.org/2000/svg" d="m21 44h-6v-3c0-1.657 1.343-3 3-3 1.657 0 3 1.343 3 3z" fill="#6b44ff" data-original="#aa8058" style="" class=""/><path xmlns="http://www.w3.org/2000/svg" d="m16.5 38.416c-.893.52-1.5 1.476-1.5 2.584v3h3v-3c0-1.108-.607-2.064-1.5-2.584z" fill="#bfafff" data-original="#e3aa75" style="" class=""/><circle xmlns="http://www.w3.org/2000/svg" cx="18" cy="12" fill="#bfafff" r="2" data-original="#e3aa75" style="" class=""/><path xmlns="http://www.w3.org/2000/svg" d="m21 20h-6v-3c0-1.657 1.343-3 3-3 1.657 0 3 1.343 3 3z" fill="#6b44ff" data-original="#aa8058" style="" class=""/><path xmlns="http://www.w3.org/2000/svg" d="m16.5 14.416c-.893.52-1.5 1.476-1.5 2.584v3h3v-3c0-1.108-.607-2.064-1.5-2.584z" fill="#bfafff" data-original="#e3aa75" style="" class=""/><path xmlns="http://www.w3.org/2000/svg" d="m29 30h9v4h-9z" fill="#6b44ff" data-original="#aa8058" style="" class=""/><path xmlns="http://www.w3.org/2000/svg" d="m29 30h5v4h-5z" fill="#bfafff" data-original="#e3aa75" style="" class=""/><path xmlns="http://www.w3.org/2000/svg" d="m29 6h14v4h-14z" fill="#6b44ff" data-original="#aa8058" style="" class=""/><path xmlns="http://www.w3.org/2000/svg" d="m29 6h11v4h-11z" fill="#bfafff" data-original="#e3aa75" style="" class=""/><path xmlns="http://www.w3.org/2000/svg" d="m47 19 8.839 13.258c.757 1.136 1.161 2.471 1.161 3.836 0 .602-.078 1.201-.233 1.782l-1.469 5.509c-1.526 5.719-2.298 11.612-2.298 17.531v1.084h-11v-5.324c0-3.07-.867-6.077-2.5-8.676-1.633-2.599-2.5-5.606-2.5-8.676v-8.324c0-1.657 1.343-3 3-3 1.657 0 3 1.343 3 3v7c0 2.209 1.791 4 4 4z" fill="#f7d291" data-original="#f7d291" style=""/><g xmlns="http://www.w3.org/2000/svg" fill="#aa8058"><path d="m28 13h16v2h-16z" fill="#6b44ff" data-original="#aa8058" style="" class=""/><path d="m28 17h16v2h-16z" fill="#6b44ff" data-original="#aa8058" style="" class=""/><path d="m28 21h16v2h-16z" fill="#6b44ff" data-original="#aa8058" style="" class=""/><path d="m28 37h9v2h-9z" fill="#6b44ff" data-original="#aa8058" style="" class=""/></g></g></svg>
