<svg viewBox="-28 0 511 512" xmlns="http://www.w3.org/2000/svg"><path d="m285.5 111.300781c-18.300781-30.601562-51.597656-51.300781-90-51.300781h-30c-8.402344 0-15 6.597656-15 15v30c0 57.898438 47.101562 105 105 105h30zm0 0" fill="#a8d32a"/><path d="m300.5 134.398438v.601562 122c0 8.398438-6.597656 15-15 15s-15-6.601562-15-15v-107zm0 0" fill="#93bf00"/><path d="m300.5 134.398438v.601562 122c0 8.398438-6.597656 15-15 15v-129.800781zm0 0" fill="#81a713"/><path d="m285.5 484.101562c-9 4.496094-18.300781 9-28.800781 13.199219-1.800781.597657-3.898438.898438-5.699219.898438-6 0-11.699219-3.300781-14.101562-9.300781l-102.597657-26.699219c-8.101562-1.800781 46.800781-129.601563 48.601563-137.699219 10.496094-48 53.699218-82.5 102.597656-82.5 50.097656 0 93.300781 35.398438 102.898438 84.601562 4.800781 23.398438 9.601562 99.597657-102.898438 157.5zm0 0" fill="#725d57"/><path d="m285.5 484.101562v-242.101562c50.097656 0 93.300781 35.398438 102.898438 84.601562 4.800781 23.398438 9.601562 99.597657-102.898438 157.5zm0 0" fill="#68544f"/><path d="m449.597656 363.199219-80.097656 106.800781c-19.800781 26.398438-51 42-84 42h-270c-8.402344 0-15-6.601562-15-15v-120c0-8.402344 6.597656-15 15-15h24l41.699219-36.601562c40.800781-36 103.5-34.796876 143.101562 4.199218 2.101563.902344 3.601563 1.5 5.699219 2.402344h40.5c5.398438 0 10.5 1.5 15 4.199219 9 5.101562 15 14.699219 15 25.800781s-6 20.699219-15 25.800781c-4.5 2.699219-9.601562 4.199219-15 4.199219h-76.5c-8.402344 0-15 6.597656-15 15 0 8.398438 6.597656 15 15 15h101.699219c26.398437 0 36-18 64.800781-48.898438l44.097656-47.402343c11.398438-12 30.601563-12.300781 42.300782-.601563 10.199218 10.203125 11.402343 26.703125 2.699218 38.101563zm0 0" fill="#ffbd86"/><path d="m285.5 387.800781v-51.601562c9 5.101562 15 14.699219 15 25.800781s-6 20.699219-15 25.800781zm0 0" fill="#f6a96c"/><path d="m449.597656 363.199219-80.097656 106.800781c-19.800781 26.398438-51 42-84 42v-90h10.199219c26.398437 0 36-18 64.800781-48.898438l44.097656-47.402343c11.402344-12 30.601563-12.300781 42.300782-.601563 10.199218 10.203125 11.402343 26.703125 2.699218 38.101563zm0 0" fill="#f6a96c"/><path d="m420.5 15c0-8.402344-6.597656-15-15-15h-30c-38.402344 0-71.699219 20.699219-90 51.300781-9.601562 15.597657-15 34.199219-15 53.699219v45h45c57.898438 0 105-47.101562 105-105zm0 0" fill="#b9dd39"/><path d="m420.5 15v30c0 57.898438-47.101562 105-105 105h-30v-98.699219c18.300781-30.601562 51.597656-51.300781 90-51.300781h30c8.402344 0 15 6.597656 15 15zm0 0" fill="#a8d32a"/></svg>