<?xml version="1.0" standalone="no"?>

<svg version="1.0" xmlns="http://www.w3.org/2000/svg"
 width="1080.000000pt" height="1080.000000pt" viewBox="0 0 1080.000000 1080.000000"
 preserveAspectRatio="xMidYMid meet">

<g transform="translate(0.000000,1080.000000) scale(0.100000,-0.100000)"
fill="#000000" stroke="none">
<path d="M2485 8379 c-75 -11 -172 -58 -220 -107 -20 -20 -50 -66 -67 -100
-27 -58 -30 -71 -26 -145 4 -97 29 -154 95 -222 55 -55 128 -91 213 -105 36
-5 179 -10 317 -10 l253 0 2 -2642 3 -2643 50 -3 c47 -3 54 0 88 33 30 29 43
35 80 35 37 0 50 -6 81 -35 51 -48 91 -48 142 0 30 29 44 35 80 35 36 0 51 -6
83 -35 27 -25 48 -35 71 -35 23 0 44 10 71 35 32 29 47 35 82 35 36 0 49 -6
77 -35 27 -28 42 -35 72 -35 29 0 45 7 72 35 30 30 42 35 81 35 39 0 51 -5 82
-35 49 -47 87 -47 143 0 58 49 107 49 161 0 52 -47 89 -47 140 0 32 29 47 35
83 35 36 0 52 -7 87 -35 61 -52 81 -45 95 30 18 102 59 178 134 249 86 81 150
107 275 114 144 7 236 -29 332 -130 63 -68 100 -140 116 -226 11 -61 15 -67
38 -70 18 -2 36 7 61 33 32 30 44 35 83 35 39 0 51 -5 81 -35 49 -49 97 -49
144 0 29 30 40 35 80 35 40 0 51 -5 80 -35 47 -49 93 -49 143 0 31 30 43 35
82 35 39 0 51 -5 81 -35 49 -49 97 -49 144 0 28 29 41 35 77 35 35 0 50 -6 82
-35 53 -48 95 -48 144 0 52 50 112 50 163 0 48 -48 90 -48 143 0 54 49 105 49
160 -1 36 -31 45 -35 88 -32 l48 3 3 2643 2 2642 253 0 c138 0 281 5 317 10
85 14 158 50 213 105 67 68 91 125 95 223 4 77 2 88 -26 145 -17 34 -47 79
-68 99 -49 51 -144 96 -229 108 -88 12 -5744 11 -5830 -1z m828 -261 c4 -79 7
-1179 7 -2445 l0 -2303 2085 0 2085 0 0 2293 c0 1262 3 2362 7 2445 l6 152 47
0 47 0 6 -67 c4 -38 7 -1165 7 -2505 l0 -2438 -2205 0 -2205 0 0 2438 c0 1340
3 2467 7 2505 l6 67 47 0 47 0 6 -142z m927 -1078 l0 -220 -25 0 -25 0 0 220
0 220 25 0 25 0 0 -220z m490 0 c0 -213 -1 -220 -20 -220 -19 0 -20 7 -20 220
0 213 1 220 20 220 19 0 20 -7 20 -220z m490 105 c0 -108 -1 -115 -20 -115
-18 0 -20 7 -20 55 l0 55 -45 0 c-33 0 -45 4 -45 15 0 11 12 15 45 15 l45 0 0
45 c0 38 3 45 20 45 19 0 20 -7 20 -115z m670 -45 l0 -160 -25 0 c-25 0 -25 1
-25 85 l0 85 -40 0 c-33 0 -40 3 -40 20 0 17 7 20 40 20 l40 0 0 55 c0 52 1
55 25 55 l25 0 0 -160z m470 100 l0 -60 35 0 c24 0 35 -5 35 -15 0 -10 -11
-15 -35 -15 l-35 0 0 -85 c0 -78 -2 -85 -20 -85 -19 0 -20 7 -20 160 0 153 1
160 20 160 18 0 20 -7 20 -60z m520 -160 l0 -220 -25 0 -25 0 0 220 0 220 25
0 25 0 0 -220z m-1790 190 c0 -18 -7 -20 -80 -20 -73 0 -80 -2 -80 -20 0 -18
7 -20 75 -20 68 0 75 -2 75 -20 0 -18 -7 -20 -75 -20 -70 0 -75 -1 -75 -21 0
-21 4 -21 95 -17 84 3 95 2 95 -13 0 -21 -44 -29 -157 -29 l-83 0 0 100 0 100
105 0 c98 0 105 -1 105 -20z m690 -20 c0 -17 -7 -20 -45 -20 -44 0 -45 -1 -45
-32 0 -26 10 -41 52 -80 40 -37 49 -51 40 -60 -13 -13 -39 -3 -84 33 l-27 22
-51 -43 c-47 -39 -53 -42 -67 -27 -15 15 -12 20 35 62 46 41 52 52 52 86 l0
39 -45 0 c-38 0 -45 3 -45 20 0 19 7 20 115 20 108 0 115 -1 115 -20z m470 0
c0 -18 -7 -20 -80 -20 l-80 0 0 -66 0 -67 100 6 c91 5 100 4 100 -13 0 -21
-52 -30 -171 -30 l-79 0 0 105 0 105 105 0 c98 0 105 -1 105 -20z m-2130 -10
c0 -18 -7 -20 -85 -20 l-85 0 0 -106 0 -107 91 8 c51 4 98 9 106 12 11 4 14
-1 11 -18 -3 -24 -5 -24 -125 -27 l-123 -3 0 141 0 140 105 0 c98 0 105 -1
105 -20z m510 0 c0 -17 -7 -20 -45 -20 l-45 0 0 -54 c0 -51 3 -57 51 -110 43
-48 49 -59 38 -72 -11 -13 -19 -9 -63 35 l-51 51 -43 -50 c-41 -48 -73 -62
-88 -39 -3 6 14 32 39 57 57 60 67 80 67 136 l0 46 -50 0 c-43 0 -50 3 -50 20
0 19 7 20 120 20 113 0 120 -1 120 -20z m2140 0 c0 -17 -7 -20 -45 -20 l-45 0
0 -48 c0 -52 12 -75 72 -138 35 -37 37 -42 23 -54 -14 -12 -23 -7 -67 37 l-50
50 -45 -48 c-48 -51 -61 -57 -81 -37 -9 9 1 25 43 69 53 56 55 59 55 113 l0
56 -45 0 c-38 0 -45 3 -45 20 0 19 7 20 115 20 108 0 115 -1 115 -20z m-1550
-240 l0 -60 -110 0 c-103 0 -110 -1 -110 -20 0 -19 7 -20 115 -20 108 0 115
-1 115 -20 0 -19 -7 -20 -140 -20 l-140 0 0 60 0 60 115 0 c108 0 115 1 115
20 0 19 -7 20 -115 20 -108 0 -115 1 -115 20 0 19 7 20 135 20 l135 0 0 -60z
m450 -40 l0 -60 115 0 c96 0 115 -3 115 -15 0 -13 -22 -15 -140 -15 l-140 0 0
75 c0 73 1 75 25 75 24 0 25 -3 25 -60z m480 0 l0 -60 115 0 c96 0 115 -3 115
-15 0 -13 -22 -15 -140 -15 l-140 0 0 75 c0 73 1 75 25 75 24 0 25 -3 25 -60z
m-690 -1340 l0 -590 -65 0 -65 0 0 590 0 590 65 0 65 0 0 -590z m-1110 505 l0
-55 -295 0 -295 0 0 -80 0 -80 300 0 300 0 0 -55 0 -55 -150 0 -150 0 0 -50 0
-50 225 0 225 0 0 -55 0 -55 -515 0 -515 0 0 55 0 55 220 0 220 0 0 50 0 50
-145 0 -145 0 0 190 0 190 360 0 360 0 0 -55z m2887 -247 c-4 -149 -7 -318 -7
-375 l0 -103 -59 0 -59 0 -6 248 c-3 136 -8 304 -10 375 l-4 127 76 0 75 0 -6
-272z m-2117 17 l0 -225 -190 0 -190 0 0 -121 0 -122 193 7 c105 3 217 9 248
12 l57 6 4 -53 c2 -30 4 -55 3 -56 -6 -11 -183 -25 -387 -30 l-248 -6 0 241 0
242 190 0 190 0 0 105 0 105 -190 0 -190 0 0 60 0 60 255 0 255 0 0 -225z
m960 215 c60 -11 144 -47 177 -76 l22 -19 -32 -52 c-17 -29 -36 -53 -40 -53
-5 0 -23 11 -41 25 -73 55 -202 72 -281 36 -49 -22 -98 -76 -116 -128 -19 -53
-19 -353 0 -406 17 -51 64 -103 115 -130 52 -27 180 -29 239 -4 l37 16 0 125
0 126 -95 0 -95 0 0 60 0 60 160 0 160 0 0 -225 0 -225 -32 -20 c-55 -34 -128
-52 -235 -57 -84 -5 -112 -2 -170 16 -182 55 -256 218 -239 527 7 132 33 225
79 286 78 102 229 148 387 118z m702 -230 c57 -16 120 -70 153 -130 29 -53 30
-61 33 -197 5 -177 -8 -228 -73 -301 -60 -67 -113 -87 -225 -87 -73 0 -93 4
-142 28 -119 58 -153 135 -153 342 0 130 2 144 26 195 52 110 134 160 264 160
44 0 97 -5 117 -10z m-2422 -520 l0 -150 -305 0 -305 0 0 -40 0 -40 320 0 320
0 0 -55 0 -55 -385 0 -385 0 0 150 0 150 305 0 305 0 0 40 0 40 -305 0 -305 0
0 55 0 55 370 0 370 0 0 -150z m2880 -160 l0 -80 -75 0 -75 0 0 80 0 80 75 0
75 0 0 -80z m-610 -910 l0 -310 -1230 0 -1230 0 0 310 0 310 1230 0 1230 0 0
-310z"/>
<path d="M6626 5730 c-37 -12 -85 -56 -102 -97 -9 -21 -14 -72 -14 -146 0 -97
3 -119 23 -157 52 -104 185 -119 260 -31 35 42 47 89 47 192 0 142 -38 214
-128 239 -42 11 -47 11 -86 0z"/>
</g>
</svg>
