<?xml version="1.0"?>
<svg xmlns="http://www.w3.org/2000/svg" xmlns:xlink="http://www.w3.org/1999/xlink" xmlns:svgjs="http://svgjs.com/svgjs" version="1.1" width="512" height="512" x="0" y="0" viewBox="0 0 64 64" style="enable-background:new 0 0 512 512" xml:space="preserve" class=""><g><g xmlns="http://www.w3.org/2000/svg" id="_24_Hours-Store" data-name="24 Hours-Store"><path d="m58 35h-2a3.992 3.992 0 0 1 -3 3.87 3.657 3.657 0 0 1 -1 .13 4 4 0 0 1 -4-4v-4a13.836 13.836 0 0 0 -1.66-6.6c-.14-.26-.29-.52-.44-.77a14.06 14.06 0 0 0 -11.68-6.62.01.01 0 0 0 .01-.01h5.77a17.993 17.993 0 0 1 18 18z" fill="#ffffff" data-original="#3d9ae2" style="" class=""/><path d="m29.78 17.01a14.06 14.06 0 0 0 -11.68 6.62c-.15.25-.3.51-.44.77a13.836 13.836 0 0 0 -1.66 6.6v4a4 4 0 0 1 -4 4 3.657 3.657 0 0 1 -1-.13 3.992 3.992 0 0 1 -3-3.87h-2a18.015 18.015 0 0 1 18-18h5.77a.01.01 0 0 0 .01.01z" fill="#8b6dff" data-original="#ff6243" style="" class=""/><path d="m53 38.87v20.13a2.006 2.006 0 0 1 -2 2h-38a2.006 2.006 0 0 1 -2-2v-20.13a3.657 3.657 0 0 0 1 .13 4 4 0 0 0 4-4 4 4 0 0 0 8 0 4 4 0 0 0 8 0 4 4 0 0 0 8 0 4 4 0 0 0 8 0 4 4 0 0 0 4 4 3.657 3.657 0 0 0 1-.13z" fill="#ffffff" data-original="#00ccb3" style="" class=""/><path d="m27 47v14h-10v-14a2.006 2.006 0 0 1 2-2h6a2.006 2.006 0 0 1 2 2z" fill="#8b6dff" data-original="#96c8ef" style="" class=""/><rect fill="#8b6dff" height="8" rx="1" width="14" x="33" y="45" data-original="#96c8ef" style="" class=""/><path d="m40 25v10a4 4 0 0 1 -8 0v-18a8.076 8.076 0 0 1 1.98.25 8 8 0 0 1 5.96 6.75 8.262 8.262 0 0 1 .06 1z" fill="#ffffff" data-original="#3d9ae2" style="" class=""/><path d="m32 17a7.992 7.992 0 0 0 -7.94 7 8.262 8.262 0 0 0 -.06 1v10a4 4 0 0 1 -8 0v-4a13.836 13.836 0 0 1 1.66-6.6c.14-.26.29-.52.44-.77a14.06 14.06 0 0 1 11.68-6.62 1.62 1.62 0 0 1 .22-.01z" fill="#ffffff" data-original="#3d9ae2" style="" class=""/><path d="m48 31v4a4 4 0 0 1 -8 0v-10a8.262 8.262 0 0 0 -.06-1 8 8 0 0 0 -5.96-6.75 8.076 8.076 0 0 0 -1.98-.25h2a1.62 1.62 0 0 1 .22.01 14.06 14.06 0 0 1 11.68 6.62c.15.25.3.51.44.77a13.836 13.836 0 0 1 1.66 6.6z" fill="#8b6dff" data-original="#ff6243" style="" class=""/><path d="m32 17v18a4 4 0 0 1 -8 0v-10a8.262 8.262 0 0 1 .06-1 8.009 8.009 0 0 1 7.94-7z" fill="#8b6dff" data-original="#ff6243" style="" class=""/><path d="m53 38.87v2a3.657 3.657 0 0 1 -1 .13 4 4 0 0 1 -4-4 4 4 0 0 1 -8 0 4 4 0 0 1 -8 0 4 4 0 0 1 -8 0 4 4 0 0 1 -8 0 4 4 0 0 1 -4 4 3.657 3.657 0 0 1 -1-.13v-2a3.657 3.657 0 0 0 1 .13 4 4 0 0 0 4-4 4 4 0 0 0 8 0 4 4 0 0 0 8 0 4 4 0 0 0 8 0 4 4 0 0 0 8 0 4 4 0 0 0 4 4 3.657 3.657 0 0 0 1-.13z" fill="#ffffff" data-original="#00b39d" style="" class=""/><g fill="#78b9eb"><path d="m27 48v4l-9 9h-1v-3z" fill="#ffffff" data-original="#78b9eb" style="" class=""/><path d="m27 54v3.5l-3.5 3.5h-3.5z" fill="#ffffff" data-original="#78b9eb" style="" class=""/><path d="m47 46-7 7h-4l8-8h2a1 1 0 0 1 1 1z" fill="#ffffff" data-original="#78b9eb" style="" class=""/><path d="m47 48v3.5l-1.5 1.5h-3.5z" fill="#ffffff" data-original="#78b9eb" style="" class=""/></g><path d="m24 30.69v1.99a15 15 0 0 1 -6.34-8.28c.14-.26.29-.52.44-.77a15 15 0 0 0 5.9 7.06z" fill="#ffffff" data-original="#1e81ce" style="" class=""/><path d="m18.1 23.63c-.15.25-.3.51-.44.77a14.876 14.876 0 0 1 -.66-4.4c0-.34.01-.67.04-1a14.9 14.9 0 0 0 1.06 4.63z" fill="#8b6dff" data-original="#ed1c24" style="" class=""/><path d="m32 33v2a14.864 14.864 0 0 1 -8-2.32v-1.99a14.881 14.881 0 0 0 8 2.31z" fill="#8b6dff" data-original="#ed1c24" style="" class=""/><path d="m40 30.69v1.99a14.864 14.864 0 0 1 -8 2.32v-2a14.881 14.881 0 0 0 8-2.31z" fill="#ffffff" data-original="#1e81ce" style="" class=""/><path d="m46.34 24.4a15 15 0 0 1 -6.34 8.28v-1.99a15 15 0 0 0 5.9-7.06c.15.25.3.51.44.77z" fill="#8b6dff" data-original="#ed1c24" style="" class=""/><path d="m47 20a14.876 14.876 0 0 1 -.66 4.4c-.14-.26-.29-.52-.44-.77a14.9 14.9 0 0 0 1.06-4.63c.03.33.04.66.04 1z" fill="#ffffff" data-original="#1e81ce" style="" class=""/><circle cx="32" cy="18" fill="#ffffff" r="15" data-original="#ffd422" style="" class=""/><path d="m33 20h4v4h2v-4h2v-2h-2v-6a1 1 0 0 0 -1.814-.581l-5 7a1 1 0 0 0 .814 1.581zm4-4.879v2.879h-2.057z" fill="#000000" data-original="#000000" style="" class=""/><path d="m27 13a2 2 0 0 1 1.846 1.227.918.918 0 0 1 -.168.869l-5.478 7.304a1 1 0 0 0 .8 1.6h7v-2h-5l4.277-5.7a2.9 2.9 0 0 0 .412-2.843 4 4 0 0 0 -7.689 1.543h2a2 2 0 0 1 2-2z" fill="#000000" data-original="#000000" style="" class=""/><path d="m46 44h-12a2 2 0 0 0 -2 2v6a2 2 0 0 0 2 2h12a2 2 0 0 0 2-2v-6a2 2 0 0 0 -2-2zm-12 8v-6h12v6z" fill="#000000" data-original="#000000" style="" class=""/><path d="m53.816 60a2.966 2.966 0 0 0 .184-1v-19.423a4.981 4.981 0 0 0 2.9-3.577h1.1a1 1 0 0 0 1-1 18.895 18.895 0 0 0 -11.011-17.219 15.99 15.99 0 0 0 -31.977-.009 18.937 18.937 0 0 0 -11.012 17.228 1 1 0 0 0 1 1h1.1a4.977 4.977 0 0 0 2.9 3.581v19.419a2.966 2.966 0 0 0 .184 1h-6.184v2h56v-2zm3.155-26h-.971a1 1 0 0 0 -1 1 2.994 2.994 0 0 1 -2.271 2.907 2.634 2.634 0 0 1 -.729.093 3 3 0 0 1 -3-3v-4a14.939 14.939 0 0 0 -2-7.47 15.8 15.8 0 0 0 .875-3.591 16.934 16.934 0 0 1 9.096 14.061zm-33.971-2.782v3.782a3 3 0 0 1 -6 0v-4a12.953 12.953 0 0 1 1.07-5.156 16.1 16.1 0 0 0 4.93 5.374zm2 1.147a15.852 15.852 0 0 0 6 1.584v1.051a3 3 0 0 1 -6 0zm8 1.584a15.852 15.852 0 0 0 6-1.584v2.635a3 3 0 0 1 -6 0zm8-2.731a16.1 16.1 0 0 0 4.93-5.374 12.953 12.953 0 0 1 1.07 5.156v4a3 3 0 0 1 -6 0zm-9-27.218a14 14 0 1 1 -14 14 14.015 14.015 0 0 1 14-14zm-23 31a1 1 0 0 0 -1-1h-.971a16.941 16.941 0 0 1 9.1-14.066 15.847 15.847 0 0 0 .876 3.6 14.939 14.939 0 0 0 -2.005 7.466v4a3 3 0 0 1 -3 3 2.7 2.7 0 0 1 -.753-.1 2.987 2.987 0 0 1 -2.247-2.9zm17 25h-8v-13a1 1 0 0 1 1-1h6a1 1 0 0 1 1 1zm2 0v-13a3 3 0 0 0 -3-3h-6a3 3 0 0 0 -3 3v13h-3a1 1 0 0 1 -1-1v-19a4.982 4.982 0 0 0 4-2.031 4.954 4.954 0 0 0 8 0 4.954 4.954 0 0 0 8 0 4.954 4.954 0 0 0 8 0 4.954 4.954 0 0 0 8 0 4.982 4.982 0 0 0 4 2.031v19a1 1 0 0 1 -1 1z" fill="#000000" data-original="#000000" style="" class=""/><path d="m23 51h2v4h-2z" fill="#000000" data-original="#000000" style="" class=""/></g></g></svg>
