<?xml version="1.0"?>
<svg xmlns="http://www.w3.org/2000/svg" xmlns:xlink="http://www.w3.org/1999/xlink" xmlns:svgjs="http://svgjs.com/svgjs" version="1.1" width="512" height="512" x="0" y="0" viewBox="0 0 60 51" style="enable-background:new 0 0 512 512" xml:space="preserve" class=""><g><g xmlns="http://www.w3.org/2000/svg" id="Page-1" fill="none" fill-rule="evenodd"><g id="008---Coffee-and-Croissant" fill-rule="nonzero"><path id="Shape" d="m11 19.74c-1.21372112-.5023556-2.51650001-.7540675-3.83-.74-6.17 0-6.17 6.88-6.17 9.47 0 5.26 2.36 8.53 6.17 8.53 1.39634967-.0126171 2.780026-.2663475 4.09-.75l-.26-4.24c-1.18131406.625916-2.49334314.9650567-3.83.99-2.01 0-2.17-3.47-2.17-4.53 0-4.62.73-5.47 2.17-5.47 1.42886643-.0608372 2.81790256.479545 3.83 1.49z" fill="#8b6dff" data-original="#3f51b5" style="" class=""/><path id="Shape" d="m56.22 37.27c-.59 1.02-2.52 3.68-7.42 5.55-1.6665105.6561341-3.4234095 1.0540498-5.21 1.18h-1.4c-.831282-.034678-1.6531535-.189621-2.44-.46-.2681483-.0954662-.4683586-.3221194-.53-.6-.06-.26-.15-.64-.24-1.11-.47-2.48-1.12-7.53.42-11.91.2400156-.7017006.5411717-1.380975.9-2.03.0978433-.1741195.2534928-.308544.44-.38l2.57-.98 2.56-.98c.1869938-.0700183.3930062-.0700183.58 0 .6600948.2600492 1.2959038.5779537 1.9.95 3.81 2.35 6.33 6.69 7.44 8.92.21.43.37.77.48 1.02.1197977.2682451.1011331.578076-.05.83z" fill="#8b6dff" data-original="#ffeb3a" style="" class=""/><path id="Shape" d="m56.27 36.44c-.11-.25-.27-.59-.48-1.02-1.11-2.23-3.63-6.57-7.44-8.92-.6040962-.3720463-1.2399052-.6899508-1.9-.95-.1869938-.0700183-.3930062-.0700183-.58 0l-1.319.505c.271.14.54.286.8.445 3.81 2.35 6.33 6.69 7.44 8.92.21.43.37.77.48 1.02.1197977.2682451.1011331.578076-.05.83-.59 1.02-2.52 3.68-7.42 5.55-1.4206068.5497243-2.9044997.9192698-4.417 1.1.247.033.516.06.807.077h1.4c1.7865905-.1259502 3.5434895-.5238659 5.21-1.18 4.9-1.87 6.83-4.53 7.42-5.55.1497796-.2513167.1680547-.5597548.049-.827z" fill="#ffffff" data-original="#fdd834" style="" class=""/><path id="Shape" d="m58.59 29.64c-.5735348 2.0792625-1.5187788 4.03751-2.79 5.78h-.01c-1.11-2.23-3.63-6.57-7.44-8.92.6536973-.7816394 1.1586967-1.6764033 1.49-2.64.2136974-.6439668.7622616-1.1196449 1.43-1.24.2-.04.4-.07.6-.1 1.8107898-.3070799 3.6433988-.4676004 5.48-.48h.04c.7571159-.014431 1.4016541.5479177 1.49 1.3.232715 2.1022654.1348635 4.2280041-.29 6.3z" fill="#ffffff" data-original="#ffdc00" style="" class=""/><path id="Shape" d="m58.88 23.34c-.0883459-.7520823-.7328841-1.314431-1.49-1.3h-.04c-.621 0-1.44.025-2.409.1.5167613.1874693.8812912.6533221.939 1.2.232715 2.1022654.1348635 4.2280041-.29 6.3-.2877659 1.1199478-.704204 2.2028212-1.241 3.227.607.968 1.1 1.866 1.441 2.553h.01c1.2712212-1.74249 2.2164652-3.7007375 2.79-5.78.4248635-2.0719959.522715-4.1977346.29-6.3z" fill="#ffffff" data-original="#fec108" style="" class=""/><path id="Shape" d="m57.39 22.04h-.04c-1.8366012.0123996-3.6692102.1729201-5.48.48.39-2.78-.57-5.46 1.96-6.43 1.9-.72 3 2.97 3.56 5.95z" fill="#ffffff" data-original="#ff9801" style="" class=""/><path id="Shape" d="m53.83 16.09c-.4546415.1612115-.8567264.4433278-1.163.816.8853509 1.5907328 1.46947 3.3312245 1.723 5.134h-.04c-.627 0-1.457.026-2.438.105-.012.125-.024.25-.042.375 1.8107898-.3070799 3.6433988-.4676004 5.48-.48h.04c-.56-2.98-1.66-6.67-3.56-5.95z" fill="#8b6dff" data-original="#f57c00" style="" class=""/><path id="Shape" d="m38.98 41.83c-1.4450001-.3663152-2.8389776-.9104703-4.15-1.62-.5103585-.2824278-.9984399-.603358-1.46-.96-1.5845665-1.323664-2.9336253-2.9060187-3.99-4.68-.3836493-.6652768-.2315525-1.5102595.36-2 .0113954-.0123522.0249512-.022519.04-.03 1.4129171-1.2275065 2.9209803-2.3409989 4.51-3.33.17-.11.35-.22.53-.33.5619215-.3551484 1.2780785-.3551484 1.84 0 .1093673.0731904.2228916.1399694.34.2.7515486.4028786 1.5612481.6862735 2.4.84-1.54 4.38-.89 9.43-.42 11.91z" fill="#ffffff" data-original="#ffdc00" style="" class=""/><path id="Shape" d="m34.29 29.21c-1.5890197.9890011-3.0970829 2.1024935-4.51 3.33-.0150488.007481-.0286046.0176478-.04.03-1.35-2.68-2.7-6.28-.8-7 2.53-.96 3.4 1.76 5.35 3.64z" fill="#ffffff" data-original="#ff9801" style="" class=""/><path id="Shape" d="m59 45v2c0 1.66-1.81 3-4.05 3h-45.9c-2.24 0-4.05-1.34-4.05-3v-2c0-.55.61-1 1.35-1h51.3c.74 0 1.35.45 1.35 1z" fill="#ffffff" data-original="#a0522d" style="" class=""/><path id="Shape" d="m57.65 44h-3c.74 0 1.35.45 1.35 1v2c0 1.66-1.81 3-4.05 3h3c2.24 0 4.05-1.34 4.05-3v-2c0-.55-.61-1-1.35-1z" fill="#ffffff" data-original="#783e22" style="" class=""/><path id="Shape" d="m37 17v12.08c-.1171084-.0600306-.2306327-.1268096-.34-.2-.5619215-.3551484-1.2780785-.3551484-1.84 0-.18.11-.36.22-.53.33-1.95-1.88-2.82-4.6-5.35-3.64-1.9.72-.55 4.32.8 7-.5915525.4897405-.7436493 1.3347232-.36 2 1.0563747 1.7739813 2.4054335 3.356336 3.99 4.68.4615601.356642.9496415.6775722 1.46.96-1.892073 2.3955152-4.7773898 3.7921118-7.83 3.79h-6c-4.6546788-.00167-8.6926975-3.2146725-9.74-7.75-.1731153-.737469-.2603615-1.4924847-.26-2.25v-17c0-.5522847.4477153-1 1-1h24c.5522847 0 1 .4477153 1 1z" fill="#ffffff" data-original="#02a9f4" style="" class=""/><path id="Shape" d="m36 16h-3c.5522847 0 1 .4477153 1 1v11.914c.095.1.19.2.29.3.17-.11.35-.22.53-.33.5619215-.3551484 1.2780785-.3551484 1.84 0 .1093673.0731904.2228916.1399694.34.2v-12.084c0-.5522847-.4477153-1-1-1z" fill="#8b6dff" data-original="#0377bc" style="" class=""/><g fill="#000"><path id="Shape" d="m57.65 43h-6.745c2.5278438-1.0887131 4.6755749-2.9033736 6.171-5.214.318727-.5301793.3593932-1.1823321.109-1.748-.066-.15-.148-.33-.24-.526 1.1869029-1.7145836 2.0713574-3.6197966 2.615-5.633.4593302-2.1816141.5646763-4.4229201.312-6.638-.102854-.9380104-.7371439-1.7327223-1.629-2.041-1.014-4.866-2.379-5.643-2.841-5.9-.5870222-.336412-1.295492-.3864909-1.924-.136-2.476.943-2.485 3.156-2.493 5.107 0 .467-.015.944-.045 1.42-.9606752.2242445-1.7360728.9311133-2.048 1.867-.19953.5831694-.4766875 1.1368117-.824 1.646-.4126926-.2196886-.8377343-.415348-1.273-.586-.4138928-.1533309-.8693158-.1515547-1.282.005l-5.135 1.962c-.4032179.1561665-.7394708.4478686-.951.825-.2377353.4337225-.4517177.8800476-.641 1.337-.2677382-.0819151-.5302264-.1800977-.786-.294v-11.453c0-1.1045695-.8954305-2-2-2h-24c-1.1045695 0-2 .8954305-2 2v1.362c-.92415187-.2402582-1.87512793-.3619025-2.83-.362-7.17 0-7.17 7.88-7.17 10.47 0 5.789 2.814 9.53 7.17 9.53 1.1539351-.0063393 2.30157749-.1705286 3.411-.488.738266 2.2190528 2.1690634 4.1426726 4.082 5.488h-8.313c-.5774462-.049152-1.15058902.1345035-1.59192723.5101105s-.71426775.9120131-.75807277 1.4898895v2c0 2.243 2.218 4 5.05 4h45.9c2.832 0 5.05-1.757 5.05-4v-2c-.043805-.5778764-.3167346-1.1142825-.7580728-1.4898895s-1.014481-.5592625-1.5919272-.5101105zm-3.462-25.974c.0747636-.0402587.1657055-.0356346.236.012.171.095.992.726 1.747 4.037-.841.035-1.931.109-3.2.273.013-.373.016-.737.017-1.076.005-2.072.106-2.829 1.2-3.246zm-3.388 7.138c.1019189-.2975694.3594957-.5147796.67-.565.185-.038.368-.065.571-.1 1.7461601-.2950592 3.513135-.4498869 5.284-.463h.066c.2442174-.0166374.4599992.1577318.495.4.2304313 1.9904468.1406276 4.0049523-.266 5.967-.37752 1.4268423-.9627788 2.7904246-1.737 4.047-1.5143404-2.7984192-3.5952424-5.250546-6.11-7.2.4325107-.6471831.7778187-1.3485584 1.027-2.086zm-9.65 4.261 5.013-1.915c5.353 2.105 8.6 8.972 9.2 10.26-.553.956-2.333 3.369-6.909 5.115-1.5695028.6177391-3.2236731.9936869-4.906 1.115h-1.319c-.6979997-.0321057-1.3886722-.1565209-2.054-.37-.057-.245-.134-.581-.211-.985-.476-2.477-1.307-8.702 1.182-13.22zm-6.091 13.032c.9858946.4784678 2.0113974.8706014 3.065 1.172.03.14.058.259.083.371h-4.907c.639346-.4505591 1.2289914-.9677978 1.759-1.543zm2.673-1.057c-1.3459917-.4450366-2.6125199-1.1015924-3.752-1.945-1.4908343-1.2477453-2.7597514-2.738799-3.753-4.41-.1188041-.2554172-.0439255-.5590914.18-.73.013-.012.026-.024.037-.036 1.3787513-1.1878761 2.8467388-2.2680555 4.391-3.231.159-.1.318-.207.511-.319.2329366-.1515624.5316094-.1581479.771-.017.6260338.3968764 1.3041874.7048221 2.015.915-.7806113 3.1988362-.9165873 6.5210707-.4 9.773zm-8.656-13.672c.0313739-.1057772.1129613-.1892359.218-.223 1.06-.4 1.545.078 2.78 1.661.212.271.439.561.683.852-1.09.731-1.987 1.409-2.665 1.955-1.04-2.318-1.226-3.703-1.016-4.245zm-19.076 4.645c-.89069279.3998395-1.85377499.613215-2.83.627-.76 0-1.17-1.819-1.17-3.53 0-4.47.676-4.47 1.17-4.47 1.02383378-.0417217 2.02845333.2866433 2.83.925zm-8-2.9c0-3.946.588-8.473 5.17-8.473.96081055-.0048014 1.91620706.1440784 2.83.441v2.149c-.8889702-.4008443-1.85491297-.6022246-2.83-.59-2.928 0-3.17 3.061-3.17 6.47 0 3.463 1.185 5.53 3.17 5.53.96441082-.0099033 1.92058186-.1788381 2.83-.5v.5c.0042461.5226935.0463564 1.0443924.126 1.561-.96002924.2835145-1.95501198.4312809-2.956.439-3.237 0-5.17-2.815-5.17-7.53zm10.233 7.551c-.1557672-.6633702-.2339578-1.3425878-.233-2.024l-.0000087-17h24.0000087v10.645c-.5240387-.0488168-1.0509886.0553921-1.517.3-.289-.33-.567-.67-.832-1.01-1.133-1.452-2.54-3.263-5.068-2.3-.6336668.2341163-1.1341067.7323661-1.371 1.365-.521 1.343-.067 3.459 1.359 6.431-.5226578.8072245-.5401172 1.8415963-.045 2.666 1.1192697 1.8743231 2.5493516 3.5444991 4.229 4.939.175.135.356.258.537.382-1.6743466 1.6573767-3.9360879 2.5855102-6.292 2.582h-6c-4.197284.0172163-7.8426871-2.8847192-8.767-6.979zm45.767 10.976c0 1.084-1.4 2-3.05 2h-45.9c-1.65 0-3.05-.916-3.05-2v-1.909c.10544796-.0634555.22699837-.0950586.35-.091h51.3c.1230016-.0040586.244552.0275445.35.091z" fill="#000000" data-original="#000000" style="" class=""/><path id="Shape" d="m22 11c0 .5522847.4477153 1 1 1s1-.4477153 1-1c-.0066363-.705428.2755433-1.3828758.781-1.875 1.6253757-1.76631178 1.6253757-4.48368822 0-6.25-.5054567-.4921242-.7876363-1.16957203-.781-1.875 0-.55228475-.4477153-1-1-1s-1 .44771525-1 1c-.0088131 1.15932949.4275017 2.27785595 1.219 3.125.4999069.49588303.7810925 1.17086442.7810925 1.875s-.2811856 1.37911697-.7810925 1.875c-.7914983.84714405-1.2278131 1.96567051-1.219 3.125z" fill="#000000" data-original="#000000" style="" class=""/><path id="Shape" d="m16 11c0 .5522847.4477153 1 1 1s1-.4477153 1-1c-.0066363-.705428.2755433-1.3828758.781-1.875 1.6253757-1.76631178 1.6253757-4.48368822 0-6.25-.5054567-.4921242-.7876363-1.16957203-.781-1.875 0-.55228475-.4477153-1-1-1s-1 .44771525-1 1c-.0088131 1.15932949.4275017 2.27785595 1.219 3.125.4999069.49588303.7810925 1.17086442.7810925 1.875s-.2811856 1.37911697-.7810925 1.875c-.7914983.84714405-1.2278131 1.96567051-1.219 3.125z" fill="#000000" data-original="#000000" style="" class=""/><path id="Shape" d="m28 11c0 .5522847.4477153 1 1 1s1-.4477153 1-1c-.0066363-.705428.2755433-1.3828758.781-1.875 1.6253757-1.76631178 1.6253757-4.48368822 0-6.25-.5054567-.4921242-.7876363-1.16957203-.781-1.875 0-.55228475-.4477153-1-1-1s-1 .44771525-1 1c-.0088131 1.15932949.4275017 2.27785595 1.219 3.125.4999069.49588303.7810925 1.17086442.7810925 1.875s-.2811856 1.37911697-.7810925 1.875c-.7914983.84714405-1.2278131 1.96567051-1.219 3.125z" fill="#000000" data-original="#000000" style="" class=""/></g></g></g></g></svg>
