<?xml version="1.0"?>
<svg xmlns="http://www.w3.org/2000/svg" xmlns:xlink="http://www.w3.org/1999/xlink" xmlns:svgjs="http://svgjs.com/svgjs" version="1.1" width="512" height="512" x="0" y="0" viewBox="0 0 64 64" style="enable-background:new 0 0 512 512" xml:space="preserve" class=""><g><g xmlns="http://www.w3.org/2000/svg"><g><g><path d="m24 33h-8c-.41 0-.8.12-1.12.34-7.45-1.96-12.88-8.08-12.88-15.34 0-8.84 8.06-16 18-16s18 7.16 18 16c0 7.26-5.43 13.38-12.88 15.34-.32-.22-.71-.34-1.12-.34z" fill="#8b6dff" data-original="#ccd1d9" style="" class=""/></g><g><path d="m14 35c0-.55.22-1.05.59-1.41.09-.09.19-.18.29-.25.32-.22.71-.34 1.12-.34h8c.41 0 .8.12 1.12.34.53.36.88.97.88 1.66 0 .55-.22 1.05-.59 1.41-.02.03-.05.05-.08.08-.35.32-.82.51-1.33.51h-8c-.52 0-.99-.19-1.34-.52-.41-.37-.66-.9-.66-1.48z" fill="#ffffff" data-original="#aab2bd" style="" class=""/></g><g><path d="m36.69 55.12v.01c-2.67 4.03-9.14 6.87-16.69 6.87-9.94 0-18-4.92-18-11v-4c0 6.08 8.06 11 18 11 5.38 0 10.2-1.44 13.5-3.72 1.02.39 2.09.68 3.19.84z" fill="#8b6dff" data-original="#ccd1d9" style="" class=""/></g><g><path d="m16 37h8c.51 0 .98-.19 1.33-.51 2.32.44 4.44 1.16 6.25 2.09l-4.33 2.52c-2.08-.68-4.55-1.1-7.25-1.1-8.01 0-14 3.7-14 7s5.99 7 14 7c3.75 0 7.05-.81 9.51-2.01 1.21.96 2.55 1.73 3.99 2.29-3.3 2.28-8.12 3.72-13.5 3.72-9.94 0-18-4.92-18-11 0-4.94 5.32-9.11 12.65-10.51l.01-.01c.35.33.82.52 1.34.52z" fill="#ffffff" data-original="#e6e9ed" style="" class=""/></g><g><path d="m24 43c.74 3.7 2.76 6.82 5.51 8.99-2.46 1.2-5.76 2.01-9.51 2.01v-14c2.7 0 5.17.42 7.25 1.1z" fill="#ffffff" data-original="#ffeaa7" style="" class=""/></g><g><path d="m20 40v14c-8.01 0-14-3.7-14-7s5.99-7 14-7z" fill="#8b6dff" data-original="#ecc19c" style="" class=""/></g><g><path d="m62 6.99v.5c0 .98-.29 1.95-.84 2.77l-16.66 24.99-6.41-3.2 14.5-27.39c.87-1.64 2.57-2.66 4.42-2.66 1.37 0 2.62.56 3.53 1.46.9.91 1.46 2.16 1.46 3.53z" fill="#ffffff" data-original="#aab2bd" style="" class=""/></g><g><path d="m44.5 35.25-2.5 3.75-6-3 2.09-3.95z" fill="#ffffff" data-original="#e6e9ed" style="" class=""/></g><g><path d="m29.51 51.99c-2.75-2.17-4.77-5.29-5.51-8.99l3.25-1.9 4.33-2.52 4.42-2.58 6 3v16c-1.01.2-2.02.3-3.02.3-.77 0-1.54-.06-2.29-.18-1.1-.16-2.17-.45-3.19-.84-1.44-.56-2.78-1.33-3.99-2.29z" fill="#8b6dff" data-original="#ecc19c" style="" class=""/></g><g><ellipse cx="20" cy="18" fill="#ffffff" rx="14" ry="12" data-original="#69d6f4" style="" class=""/></g></g><g><path d="m57.007 1c-2.226 0-4.256 1.222-5.297 3.189l-16.46 31.091-3.722 2.171c-1.429-.685-2.985-1.236-4.653-1.641.073-.259.125-.527.125-.81 0-.395-.081-.771-.221-1.117 7.264-2.488 12.221-8.838 12.221-15.883 0-9.374-8.523-17-19-17s-19 7.626-19 17c0 7.045 4.957 13.395 12.221 15.883-.14.346-.221.722-.221 1.117 0 .28.051.547.123.804-7.306 1.766-12.123 6.157-12.123 11.196v4c0 6.617 8.523 12 19 12 7.402 0 14.036-2.661 17.156-6.819.607.07 1.219.118 1.839.118 1.056 0 2.127-.104 3.201-.318l.804-.161v-16.517l18.993-28.49c.658-.988 1.007-2.138 1.007-3.325v-.494c0-3.305-2.688-5.994-5.993-5.994zm-18.487 32.378 4.52 2.26-1.382 2.073-4.295-2.148zm-22.52.622h8c.552 0 1 .449 1 1s-.448 1-1 1h-8c-.552 0-1-.449-1-1s.448-1 1-1zm-13-16c0-8.271 7.626-15 17-15s17 6.729 17 15c0 6.471-4.827 12.285-11.776 14.267-.375-.168-.787-.267-1.224-.267h-8c-.437 0-.849.099-1.224.267-6.949-1.982-11.776-7.796-11.776-14.267zm11.456 19.559c.453.274.977.441 1.544.441h8c.565 0 1.088-.166 1.54-.439 1.365.281 2.653.66 3.853 1.136l-2.277 1.328c-2.195-.663-4.638-1.025-7.116-1.025-7.99 0-15 3.738-15 8s7.01 8 15 8c3.395 0 6.699-.663 9.394-1.862.632.462 1.295.879 1.988 1.247-3.119 1.67-7.155 2.615-11.382 2.615-9.374 0-17-4.486-17-10 0-4.204 4.694-8.048 11.456-9.441zm8.564 5.637c.672 3.361 2.342 6.273 4.637 8.493-1.984.743-4.273 1.188-6.656 1.285v-11.937c1.246.051 2.468.196 3.641.431l-1.762 1.028zm-4.02 9.775c-7.251-.292-12-3.686-12-5.971s4.749-5.679 12-5.971zm1 8.029c-8.411 0-15.396-3.615-16.746-8.34 3.207 3.77 9.509 6.34 16.746 6.34 5.149 0 10.068-1.323 13.623-3.624.418.147.842.279 1.273.392-2.974 3.173-8.706 5.232-14.896 5.232zm21-6.843c-7.222 1.02-14.086-3.589-15.863-10.662l10.899-6.358 4.964 2.481zm20-46.669c0 .791-.232 1.557-.671 2.215l-16.171 24.258-4.702-2.351 14.022-26.485c.693-1.311 2.045-2.125 3.529-2.125 2.202 0 3.993 1.792 3.993 3.994z" fill="#000000" data-original="#000000" style="" class=""/><path d="m20 31c8.271 0 15-5.832 15-13s-6.729-13-15-13-15 5.832-15 13 6.729 13 15 13zm0-24c7.168 0 13 4.935 13 11s-5.832 11-13 11-13-4.935-13-11 5.832-11 13-11z" fill="#000000" data-original="#000000" style="" class=""/><path d="m20 11v-2c-3.873 0-7.503 1.691-9.473 4.414l1.621 1.172c1.6-2.212 4.609-3.586 7.852-3.586z" fill="#000000" data-original="#000000" style="" class=""/><path d="m11.268 16.307-1.904-.613c-.242.748-.364 1.524-.364 2.306h2c0-.574.09-1.143.268-1.693z" fill="#000000" data-original="#000000" style="" class=""/><path d="m27.469 42h8.062v2h-8.062z" transform="matrix(.868 -.496 .496 .868 -17.184 21.294)" fill="#000000" data-original="#000000" style="" class=""/><path d="m29.798 46.5h6.403v2h-6.403z" transform="matrix(.624 -.781 .781 .624 -24.708 43.618)" fill="#000000" data-original="#000000" style="" class=""/><path d="m37 43h2v9h-2z" fill="#000000" data-original="#000000" style="" class=""/></g></g></g></svg>
