<?xml version="1.0"?>
<svg xmlns="http://www.w3.org/2000/svg" xmlns:xlink="http://www.w3.org/1999/xlink" xmlns:svgjs="http://svgjs.com/svgjs" version="1.1" width="512" height="512" x="0" y="0" viewBox="0 0 64 64" style="enable-background:new 0 0 512 512" xml:space="preserve" class=""><g><path xmlns="http://www.w3.org/2000/svg" d="m60 33.515v18.5c0 .83-.67 1.5-1.5 1.5s-1.5-.67-1.5-1.5v-18.5z" fill="#ffffff" data-original="#ccd1d9" style="" class=""/><path xmlns="http://www.w3.org/2000/svg" d="m63 16.495v17.02h-3-3v-23.01-.01c3.31 0 6 2.68 6 6z" fill="#8b6dff" data-original="#e6e9ed" style="" class=""/><path xmlns="http://www.w3.org/2000/svg" d="m32.5 10.485c11.87 0 21.5 9.63 21.5 21.5 0 11.88-9.63 21.5-21.5 21.5-11.88 0-21.5-9.62-21.5-21.5 0-11.87 9.62-21.5 21.5-21.5zm14.5 21.5c0-8-6.5-14.5-14.5-14.5-8.01 0-14.5 6.5-14.5 14.5 0 8.01 6.49 14.5 14.5 14.5 8 0 14.5-6.49 14.5-14.5z" fill="#8b6dff" data-original="#e6e9ed" style="" class=""/><path xmlns="http://www.w3.org/2000/svg" d="m32.5 17.485c8 0 14.5 6.5 14.5 14.5 0 8.01-6.5 14.5-14.5 14.5-8.01 0-14.5-6.49-14.5-14.5 0-8 6.49-14.5 14.5-14.5z" fill="#ffffff" data-original="#ccd1d9" style="" class=""/><path xmlns="http://www.w3.org/2000/svg" d="m7 25.505v26.51c0 .83-.67 1.5-1.5 1.5s-1.5-.67-1.5-1.5v-26.51z" fill="#ffffff" data-original="#ccd1d9" style="" class=""/><path xmlns="http://www.w3.org/2000/svg" d="m10 19.505v3c0 1.66-1.34 3-3 3h-3c-1.66 0-3-1.34-3-3v-3h.25z" fill="#8b6dff" data-original="#e6e9ed" style="" class=""/><path xmlns="http://www.w3.org/2000/svg" d="m.999 23.5c-.553 0-1-.447-1-1v-12.002c0-.553.447-1 1-1s1 .447 1 1v12.002c0 .553-.447 1-1 1z" fill="#000000" data-original="#000000" style="" class=""/><path xmlns="http://www.w3.org/2000/svg" d="m3.999 20.496c-.553 0-1-.447-1-1v-8.998c0-.553.447-1 1-1s1 .447 1 1v8.998c0 .553-.447 1-1 1z" fill="#000000" data-original="#000000" style="" class=""/><path xmlns="http://www.w3.org/2000/svg" d="m6.999 20.496c-.553 0-1-.447-1-1v-8.998c0-.553.447-1 1-1s1 .447 1 1v8.998c0 .553-.447 1-1 1z" fill="#000000" data-original="#000000" style="" class=""/><path xmlns="http://www.w3.org/2000/svg" d="m9.999 23.5c-.553 0-1-.447-1-1v-12.002c0-.553.447-1 1-1s1 .447 1 1v12.002c0 .553-.447 1-1 1z" fill="#000000" data-original="#000000" style="" class=""/><path xmlns="http://www.w3.org/2000/svg" d="m3.999 26.5c-2.206 0-4-1.794-4-4 0-.553.447-1 1-1s1 .447 1 1c0 1.103.897 2 2 2 .553 0 1 .447 1 1s-.447 1-1 1z" fill="#000000" data-original="#000000" style="" class=""/><path xmlns="http://www.w3.org/2000/svg" d="m6.999 26.5c-.553 0-1-.447-1-1s.447-1 1-1c1.103 0 2-.897 2-2 0-.553.447-1 1-1s1 .447 1 1c0 2.206-1.794 4-4 4z" fill="#000000" data-original="#000000" style="" class=""/><path xmlns="http://www.w3.org/2000/svg" d="m6.999 26.5h-3c-.553 0-1-.447-1-1s.447-1 1-1h3c.553 0 1 .447 1 1s-.447 1-1 1z" fill="#000000" data-original="#000000" style="" class=""/><path xmlns="http://www.w3.org/2000/svg" d="m9.999 20.498h-8.75c-.553 0-1-.447-1-1s.447-1 1-1h8.75c.553 0 1 .447 1 1s-.447 1-1 1z" fill="#000000" data-original="#000000" style="" class=""/><path xmlns="http://www.w3.org/2000/svg" d="m3.999 53.014c-.553 0-1-.447-1-1v-26.514c0-.553.447-1 1-1s1 .447 1 1v26.514c0 .552-.447 1-1 1z" fill="#000000" data-original="#000000" style="" class=""/><path xmlns="http://www.w3.org/2000/svg" d="m6.999 53.014c-.553 0-1-.447-1-1v-26.514c0-.553.447-1 1-1s1 .447 1 1v26.514c0 .552-.447 1-1 1z" fill="#000000" data-original="#000000" style="" class=""/><path xmlns="http://www.w3.org/2000/svg" d="m5.499 54.514c-1.379 0-2.5-1.121-2.5-2.5 0-.553.447-1 1-1s1 .447 1 1c0 .275.225.5.5.5s.5-.225.5-.5c0-.553.447-1 1-1s1 .447 1 1c0 1.379-1.121 2.5-2.5 2.5z" fill="#000000" data-original="#000000" style="" class=""/><path xmlns="http://www.w3.org/2000/svg" d="m57.001 53.014c-.553 0-1-.447-1-1v-41.51c0-.553.447-1 1-1s1 .447 1 1v41.51c0 .552-.447 1-1 1z" fill="#000000" data-original="#000000" style="" class=""/><path xmlns="http://www.w3.org/2000/svg" d="m60.001 53.014c-.553 0-1-.447-1-1v-18.506c0-.553.447-1 1-1s1 .447 1 1v18.506c0 .552-.447 1-1 1z" fill="#000000" data-original="#000000" style="" class=""/><path xmlns="http://www.w3.org/2000/svg" d="m58.501 54.514c-1.379 0-2.5-1.121-2.5-2.5 0-.553.447-1 1-1s1 .447 1 1c0 .275.225.5.5.5s.5-.225.5-.5c0-.553.447-1 1-1s1 .447 1 1c0 1.379-1.121 2.5-2.5 2.5z" fill="#000000" data-original="#000000" style="" class=""/><path xmlns="http://www.w3.org/2000/svg" d="m63.001 34.508h-6c-.553 0-1-.447-1-1s.447-1 1-1h6c.553 0 1 .447 1 1s-.447 1-1 1z" fill="#000000" data-original="#000000" style="" class=""/><path xmlns="http://www.w3.org/2000/svg" d="m63.001 17.49c-.553 0-1-.447-1-1 0-2.758-2.244-5.002-5.003-5.002-.553 0-1-.447-1-1s.447-1 1-1c3.861 0 7.003 3.141 7.003 7.002 0 .553-.447 1-1 1z" fill="#000000" data-original="#000000" style="" class=""/><path xmlns="http://www.w3.org/2000/svg" d="m63.001 34.508c-.553 0-1-.447-1-1v-17.018c0-.553.447-1 1-1s1 .447 1 1v17.018c0 .553-.447 1-1 1z" fill="#000000" data-original="#000000" style="" class=""/><path xmlns="http://www.w3.org/2000/svg" d="m32.499 54.486c-12.406 0-22.5-10.094-22.5-22.5s10.094-22.5 22.5-22.5 22.5 10.094 22.5 22.5-10.094 22.5-22.5 22.5zm0-43c-11.304 0-20.5 9.196-20.5 20.5s9.196 20.5 20.5 20.5 20.5-9.196 20.5-20.5-9.196-20.5-20.5-20.5z" fill="#000000" data-original="#000000" style="" class=""/><path xmlns="http://www.w3.org/2000/svg" d="m32.499 47.486c-8.547 0-15.5-6.953-15.5-15.5s6.953-15.5 15.5-15.5 15.5 6.953 15.5 15.5-6.953 15.5-15.5 15.5zm0-29c-7.444 0-13.5 6.056-13.5 13.5s6.056 13.5 13.5 13.5 13.5-6.056 13.5-13.5-6.056-13.5-13.5-13.5z" fill="#000000" data-original="#000000" style="" class=""/></g></svg>
