<?xml version="1.0"?>
<svg xmlns="http://www.w3.org/2000/svg" xmlns:xlink="http://www.w3.org/1999/xlink" xmlns:svgjs="http://svgjs.com/svgjs" version="1.1" width="512" height="512" x="0" y="0" viewBox="0 0 512 512" style="enable-background:new 0 0 512 512" xml:space="preserve" class=""><g>
<path xmlns="http://www.w3.org/2000/svg" style="" d="M294.466,368.409l-113.285,97.066l-17.511,15.003l-9.922-11.581  c-8.07-9.418-22.247-10.512-31.665-2.441l-7.438,6.372L85.061,438.3l7.438-6.372c9.418-8.07,10.512-22.247,2.441-31.665l0,0  c-8.07-9.418-22.247-10.512-31.665-2.441l-7.438,6.372l-29.585-34.529l13.577-10.767L215.174,145.61l115.535-98.995l17.618-15.095  l9.922,11.581c8.07,9.418,22.247,10.512,31.665,2.441l7.438-6.372l29.585,34.529l-7.438,6.372  c-9.418,8.07-10.512,22.247-2.441,31.665l0,0c8.07,9.418,22.247,10.512,31.665,2.441l7.438-6.372l29.585,34.529L472.17,154.77  L294.466,368.409z" fill="#ffffff" data-original="#d7d5d9" class=""/>
<path xmlns="http://www.w3.org/2000/svg" style="" d="M345.666,366.389H63.03h-23.2v-15.25c0-12.402-10.054-22.457-22.457-22.457H7.579v-45.47h9.794  c12.402,0,22.457-10.054,22.457-22.457l0,0c0-12.402-10.054-22.457-22.457-22.457H7.579v-45.47h9.794  c12.402,0,22.457-10.054,22.457-22.457V145.61h23.2h70.872h56.835H448.97h23.2v15.25c0,12.402,10.054,22.457,22.457,22.457h9.794  v45.47h-9.794c-12.402,0-22.457,10.054-22.457,22.457l0,0c0,12.402,10.054,22.457,22.457,22.457h9.794v45.47h-9.794  c-12.402,0-22.457,10.054-22.457,22.457v24.761h-23.2h-36.783H345.666z" fill="#8b6dff" data-original="#77757e" class=""/>
<polygon xmlns="http://www.w3.org/2000/svg" style="" points="212.007,181.141 427.898,181.141 427.898,330.859 84.102,330.859 84.102,181.141   154.083,181.141 " fill="#ffffff" data-original="#ffda44" class=""/>
<path xmlns="http://www.w3.org/2000/svg" d="M156.673,222.827c2.771,0,4.057,2.969,4.057,5.739c0,3.067-1.484,5.838-4.057,5.838h-14.446v56.696  c0,2.672-3.265,4.057-6.432,4.057c-3.264,0-6.431-1.385-6.431-4.057v-56.696h-14.546c-2.573,0-4.057-2.672-4.057-5.838  c0-2.77,1.286-5.739,4.057-5.739L156.673,222.827L156.673,222.827z" fill="#000000" data-original="#000000" style="" class=""/>
<path xmlns="http://www.w3.org/2000/svg" d="M167.755,226.784c0-2.77,3.166-3.957,6.431-3.957c3.167,0,6.431,1.187,6.431,3.957V291.1c0,2.672-3.264,4.057-6.431,4.057  c-3.265,0-6.431-1.385-6.431-4.057V226.784z" fill="#000000" data-original="#000000" style="" class=""/>
<path xmlns="http://www.w3.org/2000/svg" d="M215.052,234.106c-6.63,0-10.389,3.661-10.389,11.38v27.606c0,7.717,3.76,11.379,10.587,11.379  c9.004,0,9.795-6.431,10.092-10.587c0.198-3.067,2.969-4.057,6.333-4.057c4.452,0,6.531,1.285,6.531,6.333  c0,11.973-9.796,19.592-23.649,19.592c-12.467,0-22.758-6.135-22.758-22.659v-27.606c0-16.525,10.389-22.659,22.856-22.659  c13.753,0,23.55,7.321,23.55,18.8c0,5.146-2.079,6.333-6.432,6.333c-3.66,0-6.333-1.088-6.431-4.057  C225.144,240.835,224.451,234.106,215.052,234.106z" fill="#000000" data-original="#000000" style="" class=""/>
<path xmlns="http://www.w3.org/2000/svg" d="M246.909,226.784c0-2.77,3.166-3.957,6.431-3.957c3.167,0,6.431,1.187,6.431,3.957v27.013l21.373-29.09  c0.989-1.385,2.177-1.88,3.561-1.88c3.265,0,7.421,3.364,7.421,6.63c0,0.692-0.099,1.582-0.791,2.473l-17.711,22.165l21.571,32.85  c0.494,0.693,0.692,1.484,0.692,2.276c0,3.167-3.957,6.431-7.717,6.431c-1.683,0-3.364-0.693-4.452-2.473l-18.602-28.2l-5.344,6.728  V291.1c0,2.672-3.264,4.057-6.431,4.057c-3.265,0-6.431-1.385-6.431-4.057v-64.316H246.909z" fill="#000000" data-original="#000000" style="" class=""/>
<path xmlns="http://www.w3.org/2000/svg" d="M314.387,253.896h15.041c2.573,0,4.057,2.474,4.057,5.146c0,2.276-1.286,4.948-4.057,4.948h-15.041v19.889h28.003  c2.573,0,4.057,2.672,4.057,5.739c0,2.672-1.286,5.541-4.057,5.541h-35.225c-2.87,0-5.64-1.385-5.64-4.057v-64.216  c0-2.672,2.77-4.057,5.64-4.057h35.225c2.77,0,4.057,2.87,4.057,5.541c0,3.067-1.484,5.739-4.057,5.739h-28.003V253.896z" fill="#000000" data-original="#000000" style="" class=""/>
<path xmlns="http://www.w3.org/2000/svg" d="M395.127,222.827c2.771,0,4.057,2.969,4.057,5.739c0,3.067-1.484,5.838-4.057,5.838h-14.446v56.696  c0,2.672-3.265,4.057-6.432,4.057c-3.264,0-6.431-1.385-6.431-4.057v-56.696h-14.546c-2.573,0-4.057-2.672-4.057-5.838  c0-2.77,1.286-5.739,4.057-5.739L395.127,222.827L395.127,222.827z" fill="#000000" data-original="#000000" style="" class=""/>
<g xmlns="http://www.w3.org/2000/svg" style="opacity:0.19;">
	<path style="" d="M499.475,228.788h9.794v-45.47h-9.794c-12.402,0-22.457-10.054-22.457-22.457v-15.25h-23.2h-34.162   C362.524,319.493,250.835,326.294,187.03,366.389h163.485h66.52h36.783h23.2v-24.76c0-12.402,10.054-22.457,22.457-22.457h9.794   v-45.47h-9.794c-12.402,0-22.457-10.054-22.457-22.457l0,0C477.018,238.843,487.072,228.788,499.475,228.788z" fill="#8b6dff" data-original="#3e3b43" class=""/>
</g>
<path xmlns="http://www.w3.org/2000/svg" d="M494.628,236.368h9.793c4.187,0,7.579-3.392,7.579-7.579v-45.47c0-4.187-3.392-7.579-7.579-7.579h-9.793  c-8.204,0-14.878-6.674-14.878-14.878v-2.756l11.117-10.183c3.014-2.761,3.296-7.415,0.637-10.52l-29.585-34.529  c-1.308-1.527-3.169-2.471-5.173-2.625c-2.008-0.168-3.989,0.494-5.513,1.801l-7.437,6.373c-6.23,5.337-15.642,4.611-20.979-1.618  c-2.586-3.017-3.842-6.863-3.536-10.825c0.305-3.962,2.135-7.568,5.154-10.154l7.437-6.373c3.179-2.723,3.548-7.508,0.824-10.686  L403.11,34.239c-2.722-3.177-7.507-3.548-10.686-0.824l-7.438,6.372c-3.018,2.586-6.861,3.844-10.824,3.536  c-3.962-0.305-7.568-2.135-10.154-5.154l-9.922-11.581c-1.308-1.527-3.169-2.471-5.173-2.625c-2.011-0.154-3.988,0.492-5.513,1.801  L212.373,138.032h-21.636c-4.187,0-7.579,3.392-7.579,7.579s3.392,7.579,7.579,7.579h273.855v7.672  c0,16.562,13.474,30.036,30.036,30.036h2.214v30.312h-2.214c-16.562,0-30.036,13.474-30.036,30.036s13.474,30.036,30.036,30.036  h2.214v30.312h-2.214c-16.562,0-30.036,13.473-30.036,30.035v17.182h-52.404c-4.187,0-7.579,3.392-7.579,7.579  s3.392,7.579,7.579,7.579h59.983c4.187,0,7.579-3.392,7.579-7.579v-24.761c0-8.202,6.674-14.877,14.878-14.877h9.793  c4.187,0,7.579-3.392,7.579-7.579v-45.47c0-4.187-3.392-7.579-7.579-7.579h-9.793c-8.204,0-14.878-6.674-14.878-14.878  S486.424,236.368,494.628,236.368z M235.67,138.032l111.836-95.824l4.991,5.826c5.219,6.093,12.5,9.788,20.499,10.404  c7.998,0.615,15.759-1.918,21.852-7.138l1.683-1.441l19.723,23.017l-1.682,1.442c-12.576,10.775-14.042,29.774-3.265,42.351  c10.777,12.576,29.776,14.041,42.351,3.265l1.682-1.442l16.743,19.54H235.67z" fill="#000000" data-original="#000000" style="" class=""/>
<path xmlns="http://www.w3.org/2000/svg" d="M345.666,358.81H47.409v-7.671c0-16.562-13.474-30.036-30.036-30.036h-2.215v-30.312h2.215  c16.562,0,30.036-13.474,30.036-30.036s-13.474-30.036-30.036-30.036h-2.215v-30.312h2.215c16.562,0,30.036-13.474,30.036-30.036  v-17.182h86.493c4.187,0,7.579-3.392,7.579-7.579s-3.392-7.579-7.579-7.579H39.83c-4.187,0-7.579,3.392-7.579,7.579v24.761  c0,8.204-6.674,14.878-14.878,14.878H7.579c-4.187,0-7.579,3.392-7.579,7.579v45.47c0,4.187,3.392,7.579,7.579,7.579h9.794  c8.204,0,14.878,6.674,14.878,14.878c0,8.205-6.674,14.878-14.878,14.878H7.579c-4.187,0-7.579,3.392-7.579,7.579v45.47  c0,4.187,3.392,7.579,7.579,7.579h9.794c8.204,0,14.878,6.674,14.878,14.878v4.098l-10.708,8.492  c-1.615,1.28-2.637,3.162-2.836,5.211c-0.197,2.05,0.449,4.094,1.79,5.658l29.584,34.529c1.308,1.527,3.169,2.471,5.173,2.625  c2.004,0.167,3.988-0.493,5.513-1.801l7.438-6.373c3.018-2.587,6.863-3.851,10.824-3.536c3.962,0.305,7.568,2.135,10.154,5.154  c5.338,6.23,4.612,15.641-1.618,20.979l-7.437,6.372c-3.179,2.723-3.548,7.508-0.824,10.686l29.584,34.529  c2.723,3.179,7.508,3.55,10.686,0.824l7.438-6.372c3.017-2.586,6.873-3.845,10.824-3.536c3.962,0.305,7.568,2.135,10.154,5.154  l9.922,11.58c1.499,1.749,3.623,2.648,5.759,2.648c1.745,0,3.498-0.599,4.927-1.824l130.796-112.069  c0.073-0.063,0.136-0.131,0.207-0.196h46.061c4.187,0,7.579-3.392,7.579-7.579S349.853,358.81,345.666,358.81z M164.495,469.792  l-4.991-5.825c-5.219-6.092-12.499-9.788-20.499-10.404c-7.999-0.621-15.759,1.918-21.852,7.138l-1.683,1.441l-19.723-23.018  l1.682-1.441c6.093-5.22,9.788-12.5,10.404-20.5c0.616-7.999-1.918-15.76-7.138-21.852c-5.219-6.092-12.499-9.788-20.499-10.404  c-7.997-0.607-15.759,1.919-21.852,7.138l-1.683,1.442l-16.744-19.54H276.33L164.495,469.792z" fill="#000000" data-original="#000000" style="" class=""/>
<path xmlns="http://www.w3.org/2000/svg" d="M76.523,181.141v149.718c0,4.187,3.392,7.579,7.579,7.579h343.798c4.187,0,7.579-3.392,7.579-7.579V181.141  c0-4.187-3.392-7.579-7.579-7.579H212.007c-4.187,0-7.579,3.392-7.579,7.579s3.392,7.579,7.579,7.579H420.32v134.56H91.681V188.72  h62.402c4.187,0,7.579-3.392,7.579-7.579s-3.392-7.579-7.579-7.579H84.102C79.915,173.562,76.523,176.956,76.523,181.141z" fill="#000000" data-original="#000000" style="" class=""/>
<g xmlns="http://www.w3.org/2000/svg">
</g>
<g xmlns="http://www.w3.org/2000/svg">
</g>
<g xmlns="http://www.w3.org/2000/svg">
</g>
<g xmlns="http://www.w3.org/2000/svg">
</g>
<g xmlns="http://www.w3.org/2000/svg">
</g>
<g xmlns="http://www.w3.org/2000/svg">
</g>
<g xmlns="http://www.w3.org/2000/svg">
</g>
<g xmlns="http://www.w3.org/2000/svg">
</g>
<g xmlns="http://www.w3.org/2000/svg">
</g>
<g xmlns="http://www.w3.org/2000/svg">
</g>
<g xmlns="http://www.w3.org/2000/svg">
</g>
<g xmlns="http://www.w3.org/2000/svg">
</g>
<g xmlns="http://www.w3.org/2000/svg">
</g>
<g xmlns="http://www.w3.org/2000/svg">
</g>
<g xmlns="http://www.w3.org/2000/svg">
</g>
</g></svg>
