<?xml version="1.0"?>
<svg xmlns="http://www.w3.org/2000/svg" xmlns:xlink="http://www.w3.org/1999/xlink" xmlns:svgjs="http://svgjs.com/svgjs" version="1.1" width="512" height="512" x="0" y="0" viewBox="0 0 511.996 511.996" style="enable-background:new 0 0 512 512" xml:space="preserve" class=""><g>
<path xmlns="http://www.w3.org/2000/svg" style="" d="M85.357,25.623H66.723C62.039,12.322,47.458,5.334,34.156,10.027  c-10.238,3.609-17.073,13.284-17.056,24.137v8.532c0,9.428,7.636,17.064,17.064,17.064h51.192c9.428,0,17.064-7.636,17.064-17.064  S94.785,25.623,85.357,25.623z" fill="#ffffff" data-original="#dbdbdb" class=""/>
<path xmlns="http://www.w3.org/2000/svg" style="" d="M34.165,51.219h51.192c7.756-0.026,14.522-5.29,16.458-12.798  c-1.937-7.508-8.703-12.772-16.458-12.798H66.723C62.039,12.322,47.458,5.334,34.156,10.027  c-10.238,3.609-17.073,13.284-17.056,24.137C17.101,43.583,24.745,51.219,34.165,51.219z" fill="#ffffff" data-original="#ebebeb" class=""/>
<path xmlns="http://www.w3.org/2000/svg" style="" d="M383.979,25.623h-1.57c-4.624-13.267-19.129-20.281-32.396-15.656  c-7.338,2.551-13.097,8.319-15.656,15.656h-1.57c-9.428,0-17.064,7.636-17.064,17.064s7.636,17.064,17.064,17.064h51.192  c9.428,0,17.064-7.636,17.064-17.064S393.407,25.623,383.979,25.623z" fill="#ffffff" data-original="#dbdbdb" class=""/>
<path xmlns="http://www.w3.org/2000/svg" style="" d="M383.979,25.623h-1.57c-4.624-13.267-19.129-20.281-32.396-15.656  c-7.338,2.551-13.097,8.319-15.656,15.656h-1.57c-7.756,0.026-14.522,5.29-16.458,12.798c1.937,7.508,8.703,12.772,16.458,12.798  h51.192c7.756-0.026,14.522-5.29,16.458-12.798C398.501,30.913,391.743,25.657,383.979,25.623z" fill="#ffffff" data-original="#ebebeb" class=""/>
<circle xmlns="http://www.w3.org/2000/svg" style="" cx="264.496" cy="285.851" r="153.577" fill="#ffffff" data-original="#8aced8" class=""/>
<g xmlns="http://www.w3.org/2000/svg">
	<ellipse style="" cx="264.496" cy="279.452" rx="153.253" ry="147.178" fill="#ffffff" data-original="#b3e4e8" class=""/>
	<path style="" d="M242.185,511.814c-4.676-0.572-8.003-4.821-7.44-9.505c0.538-4.394,4.351-7.653,8.779-7.491   c5.367,0.162,10.819,0.102,16.211-0.154c4.71-0.239,8.72,3.396,8.959,8.105c0.239,4.71-3.396,8.72-8.105,8.959l0,0   c-5.819,0.282-11.714,0.341-17.516,0.179C242.739,511.873,242.458,511.848,242.185,511.814z M184.465,496.371   c-0.478-0.102-0.939-0.247-1.391-0.435c-5.375-2.176-10.75-4.599-15.972-7.201c-4.223-2.107-5.938-7.227-3.831-11.45   c2.107-4.223,7.227-5.938,11.45-3.831l0,0c4.829,2.415,9.795,4.659,14.76,6.672c4.326,1.86,6.331,6.877,4.471,11.203   c-1.587,3.694-5.546,5.785-9.488,5.008V496.371z M316.857,506.507c-4.607-1.007-7.525-5.546-6.518-10.153   c0.7-3.208,3.174-5.725,6.365-6.484c5.205-1.246,10.443-2.713,15.588-4.368c4.394-1.715,9.334,0.461,11.049,4.846   c1.715,4.394-0.461,9.334-4.846,11.049c-0.316,0.119-0.64,0.23-0.973,0.316c-5.554,1.792-11.228,3.413-16.868,4.727   C319.408,506.746,318.112,506.771,316.857,506.507z M120.492,456.168c-1.45-0.316-2.799-1.007-3.899-2.014   c-4.266-3.899-8.532-8.029-12.525-12.261c-3.285-3.379-3.217-8.779,0.154-12.064c3.37-3.285,8.779-3.217,12.064,0.154   c0.06,0.06,0.119,0.128,0.179,0.188c3.703,3.916,7.602,7.739,11.587,11.339c3.49,3.165,3.763,8.558,0.597,12.047   C126.601,455.835,123.487,456.825,120.492,456.168z M386.146,476.457c-4.607-1.007-7.525-5.554-6.518-10.153   c0.478-2.176,1.783-4.078,3.643-5.307c4.496-2.961,8.933-6.143,13.191-9.436c3.805-2.781,9.138-1.962,11.928,1.843   c2.679,3.652,2.031,8.771-1.476,11.638c-4.599,3.566-9.385,6.996-14.249,10.238c-1.92,1.263-4.275,1.706-6.518,1.212V476.457z    M74.146,396.563c-2.457-0.529-4.548-2.124-5.716-4.343c-2.739-5.119-5.298-10.469-7.611-15.793   c-1.886-4.326,0.094-9.36,4.42-11.245s9.36,0.094,11.237,4.42l0,0c2.133,4.914,4.496,9.829,7.022,14.598   c2.21,4.164,0.623,9.326-3.541,11.535c-1.792,0.956-3.865,1.229-5.844,0.793L74.146,396.563z M441.084,424.65   c-4.599-1.007-7.517-5.554-6.51-10.162c0.256-1.186,0.768-2.295,1.493-3.268c3.217-4.317,6.305-8.822,9.172-13.37   c2.397-4.053,7.636-5.392,11.689-2.995s5.392,7.636,2.995,11.689c-0.077,0.128-0.162,0.264-0.247,0.392   c-3.106,4.932-6.442,9.803-9.923,14.504C447.748,424.121,444.352,425.375,441.084,424.65z M50.888,324.731   c-3.49-0.768-6.143-3.626-6.629-7.167c-0.802-5.793-1.382-11.672-1.706-17.457c-0.273-4.71,3.319-8.754,8.029-9.035   c4.71-0.273,8.754,3.319,9.035,8.037c0.316,5.333,0.853,10.75,1.604,16.109c0.648,4.667-2.611,8.976-7.278,9.624   c-0.981,0.137-1.988,0.102-2.961-0.111L50.888,324.731L50.888,324.731z M474.931,357.153c-0.205-0.043-0.418-0.094-0.623-0.154   c-4.513-1.348-7.09-6.092-5.742-10.614l0,0c1.485-4.991,2.816-10.136,3.933-15.272c0.998-4.667,5.563-7.662,10.238-6.732   c4.522,0.87,7.474,5.247,6.604,9.769c-0.009,0.051-0.026,0.111-0.034,0.162l-0.154,0.674c-1.16,5.324-2.56,10.878-4.198,16.271   c-1.288,4.283-5.674,6.843-10.034,5.862L474.931,357.153z M53.703,249.265c-4.607-1.007-7.525-5.546-6.518-10.153l0.196-0.904   c1.246-5.691,2.722-11.399,4.385-16.953c1.357-4.513,6.109-7.073,10.631-5.716s7.073,6.109,5.716,10.631l0,0   c-1.544,5.119-2.909,10.418-4.061,15.69l-0.196,0.904C62.85,247.354,58.311,250.272,53.703,249.265z M483.719,282.114   c-3.737-0.819-6.467-4.027-6.689-7.841c-0.316-5.358-0.853-10.785-1.57-16.117c-0.64-4.667,2.628-8.976,7.295-9.607   s8.976,2.628,9.607,7.295c0.785,5.776,1.357,11.646,1.706,17.439c0.273,4.701-3.319,8.737-8.02,9.01   c-0.793,0.051-1.578-0.009-2.355-0.179H483.719z M82.516,178.492c-4.607-1.007-7.525-5.546-6.518-10.153   c0.213-0.973,0.597-1.903,1.126-2.747c3.106-4.914,6.459-9.778,9.957-14.453c2.824-3.771,8.174-4.531,11.945-1.706   c3.771,2.824,4.531,8.174,1.706,11.945l0,0c-3.242,4.326-6.331,8.822-9.198,13.361C89.615,177.758,86.014,179.26,82.516,178.492z    M466.262,208.653c-2.688-0.58-4.932-2.432-6.024-4.957c-2.116-4.906-4.462-9.82-6.988-14.607   c-2.176-4.181-0.546-9.334,3.635-11.501c4.147-2.159,9.249-0.572,11.459,3.541c2.73,5.179,5.273,10.494,7.568,15.81   c1.869,4.326-0.128,9.351-4.454,11.211C469.82,208.858,468.003,209.037,466.262,208.653z" fill="#ffffff" data-original="#b3e4e8" class=""/>
</g>
<path xmlns="http://www.w3.org/2000/svg" style="" d="M477.832,102.412h-18.634c-4.684-13.301-19.265-20.289-32.567-15.605  c-10.238,3.609-17.073,13.284-17.056,24.137v8.532c0,9.428,7.636,17.064,17.064,17.064h51.192c9.428,0,17.064-7.636,17.064-17.064  S487.26,102.412,477.832,102.412z" fill="#ffffff" data-original="#dbdbdb" class=""/>
<path xmlns="http://www.w3.org/2000/svg" style="" d="M426.639,128.008h51.192c7.756-0.026,14.522-5.29,16.458-12.798  c-1.937-7.508-8.703-12.772-16.458-12.798h-18.634c-4.684-13.301-19.265-20.289-32.567-15.605  c-10.238,3.609-17.073,13.284-17.056,24.137C409.575,120.372,417.22,128.008,426.639,128.008z" fill="#ffffff" data-original="#ebebeb" class=""/>
<path xmlns="http://www.w3.org/2000/svg" style="" d="M332.787,128.008h-42.66l-17.064-59.724l-34.128-8.532l17.064,68.256h-66.55l-10.238-25.596h-34.128  l17.064,42.66l-17.064,42.66h34.128l10.238-25.596h66.55l-17.064,68.256l34.128-8.532l17.064-59.724h42.66  c9.428,0,17.064-7.636,17.064-17.064C349.851,135.644,342.215,128.008,332.787,128.008z" fill="#8b6dff" data-original="#428dc5" class=""/>
<g xmlns="http://www.w3.org/2000/svg">
	<path style="" d="M110.953,281.585h17.064c9.428,0,17.064-7.636,17.064-17.064s7.636-17.064,17.064-17.064h34.128   l13.651,10.238c12.892,9.667,20.477,24.837,20.477,40.954v25.596c0,5.375-2.525,10.426-6.826,13.651l-18.489,13.873   c-3.771,2.833-4.531,8.174-1.698,11.945c0.427,0.572,0.93,1.084,1.485,1.536l24.453,19.573c6.075,4.855,9.607,12.209,9.607,19.982   v30.357C238.934,435.162,119.485,426.63,110.953,281.585z" fill="#8b6dff" data-original="#79a73a" class=""/>
	<path style="" d="M204.874,365.25c-3.677-2.944-4.275-8.31-1.331-11.996c0.452-0.563,0.973-1.066,1.544-1.493   l18.489-13.865c4.3-3.225,6.826-8.276,6.826-13.651v-25.596c0-16.117-7.585-31.287-20.477-40.954l-13.651-10.238h-34.128   c-9.428,0-17.064,7.636-17.064,17.064s-7.636,17.064-17.064,17.064h-16.851c0,1.433-0.213,2.824-0.213,4.266   c0.034,74.894,54.127,138.825,127.981,151.273v-32.319c0-7.773-3.532-15.127-9.607-19.982L204.874,365.25z" fill="#8b6dff" data-original="#79a73a" class=""/>
</g>
<path xmlns="http://www.w3.org/2000/svg" style="" d="M204.874,365.25c-3.677-2.944-4.275-8.31-1.331-11.996c0.452-0.563,0.973-1.066,1.544-1.493  l18.489-13.865c4.3-3.225,6.826-8.276,6.826-13.651v-25.596c0-16.117-7.585-31.287-20.477-40.954l-13.651-10.238h-34.128  c-9.428,0-17.064,7.636-17.064,17.064s-7.636,17.064-17.064,17.064h-7.807c10.554,114.056,91.95,138.765,118.724,143.799v-20.579  c0-7.773-3.532-15.127-9.607-19.982L204.874,365.25z" fill="#8b6dff" data-original="#89b140" class=""/>
<path xmlns="http://www.w3.org/2000/svg" style="" d="M415.002,255.024c-3.839-12.167-9.505-23.676-16.817-34.128c-3.217-4.693-8.515-7.517-14.206-7.568  h-8.532c-9.428,0-17.064,7.636-17.064,17.064s-7.636,17.064-17.064,17.064h-17.397c-5.179,0-10.085,2.363-13.319,6.408  l-21.211,26.509c-4.633,5.81-4.983,13.95-0.853,20.127l22.141,33.207c3.157,4.744,8.472,7.594,14.172,7.602h7.935  c9.428,0,17.064,7.636,17.064,17.064v1.468c0,4.522,1.8,8.865,5,12.064l6.826,6.826c6.527,5.17,15.417,6.203,22.951,2.662  c28.343-35.545,39.469-81.831,30.366-126.377L415.002,255.024z" fill="#8b6dff" data-original="#79a73a" class=""/>
<path xmlns="http://www.w3.org/2000/svg" style="" d="M354.851,354.841l6.826,6.826c6.655,6.672,17.457,6.689,24.129,0.043  c0.793-0.793,1.51-1.664,2.142-2.602c17.09-24.197,27.644-52.395,30.63-81.865c-1.604-20.264-8.652-39.717-20.4-56.312  c-3.208-4.701-8.506-7.542-14.197-7.602h-8.532c-9.428,0-17.064,7.636-17.064,17.064s-7.636,17.064-17.064,17.064h-17.397  c-5.179,0-10.085,2.363-13.319,6.408l-21.211,26.509c-0.478,0.708-0.896,1.45-1.263,2.218c0.162,0.273,0.213,0.58,0.384,0.853  l22.141,33.207c3.165,4.744,8.489,7.594,14.197,7.594h7.935c9.428,0,17.064,7.636,17.064,17.064v1.468  C349.851,347.307,351.651,351.641,354.851,354.841z" fill="#8b6dff" data-original="#89b140" class=""/>
<g xmlns="http://www.w3.org/2000/svg">
	<path style="" d="M179.21,102.412h-34.128l10.238,25.596h34.128L179.21,102.412z" fill="#8b6dff" data-original="#6cbae5" class=""/>
	<path style="" d="M273.062,68.283l-34.128-8.532l17.064,68.256h34.128L273.062,68.283z" fill="#8b6dff" data-original="#6cbae5" class=""/>
</g>
<path xmlns="http://www.w3.org/2000/svg" d="M85.357,68.283H34.165c-14.112,0-25.596-11.484-25.596-25.596v-8.532C8.543,19.719,17.689,6.776,31.315,1.972  c8.592-3.02,17.832-2.525,26.04,1.408c6.305,3.02,11.407,7.781,14.812,13.711h13.191c14.112,0,25.596,11.484,25.596,25.596  S99.478,68.283,85.357,68.283z M42.62,17.1c-1.869,0-3.771,0.307-5.631,0.964c-6.8,2.406-11.365,8.865-11.356,16.074v8.549  c0,4.701,3.831,8.532,8.532,8.532h51.192c4.701,0,8.532-3.831,8.532-8.532s-3.831-8.532-8.532-8.532H66.723  c-3.618,0-6.843-2.287-8.046-5.699C56.22,21.477,49.633,17.1,42.62,17.1z" fill="#000000" data-original="#000000" style="" class=""/>
<path xmlns="http://www.w3.org/2000/svg" d="M383.979,68.283h-51.192c-14.112,0-25.596-11.484-25.596-25.596c0-12.73,9.343-23.318,21.518-25.272  c4.019-7.218,10.52-12.73,18.489-15.503c8.583-2.986,17.781-2.466,25.963,1.493c6.373,3.08,11.518,7.952,14.888,14.018  c12.184,1.954,21.518,12.542,21.518,25.272C409.575,56.808,398.1,68.283,383.979,68.283z M332.787,34.155  c-4.71,0-8.532,3.831-8.532,8.532s3.822,8.532,8.532,8.532h51.192c4.71,0,8.532-3.831,8.532-8.532s-3.822-8.532-8.532-8.532h-1.57  c-3.635,0-6.868-2.295-8.054-5.725c-3.055-8.814-12.721-13.489-21.535-10.409c-4.906,1.706-8.703,5.503-10.409,10.409  c-1.194,3.43-4.428,5.725-8.054,5.725H332.787z" fill="#000000" data-original="#000000" style="" class=""/>
<path xmlns="http://www.w3.org/2000/svg" d="M264.206,447.994c-31.722,0-62.745-9.351-89.723-27.371c-36.005-24.043-60.492-60.68-68.939-103.153  c-8.455-42.473,0.145-85.687,24.197-121.693c3.106-4.65,6.493-9.189,10.068-13.498c3.02-3.618,8.396-4.112,12.013-1.118  c3.626,3.012,4.121,8.387,1.118,12.013c-3.2,3.856-6.228,7.918-9.01,12.081c-21.518,32.208-29.214,70.884-21.654,108.878  c7.559,37.993,29.47,70.773,61.687,92.3c32.209,21.518,70.867,29.214,108.878,21.646c38.002-7.559,70.773-29.461,92.3-61.678  c21.518-32.209,29.214-70.884,21.646-108.878c-7.559-38.002-29.461-70.773-61.678-92.3c-3.916-2.619-4.974-7.918-2.346-11.834  c2.611-3.916,7.892-4.974,11.834-2.355c36.005,24.052,60.492,60.688,68.939,103.161s-0.154,85.687-24.205,121.693  c-24.043,36.005-60.68,60.492-103.153,68.939C285.528,446.944,274.828,447.994,264.206,447.994z" fill="#000000" data-original="#000000" style="" class=""/>
<path xmlns="http://www.w3.org/2000/svg" d="M242.185,511.814c-4.676-0.572-8.003-4.821-7.44-9.505c0.538-4.394,4.351-7.653,8.779-7.491  c5.367,0.162,10.819,0.102,16.211-0.154c4.71-0.239,8.72,3.396,8.959,8.105c0.239,4.71-3.396,8.72-8.105,8.959l0,0  c-5.819,0.282-11.714,0.341-17.516,0.179C242.739,511.873,242.458,511.848,242.185,511.814z M184.465,496.371  c-0.478-0.102-0.939-0.247-1.391-0.435c-5.375-2.176-10.75-4.599-15.972-7.201c-4.223-2.107-5.938-7.227-3.831-11.45  c2.107-4.223,7.227-5.938,11.45-3.831l0,0c4.829,2.415,9.795,4.659,14.76,6.672c4.326,1.86,6.331,6.877,4.471,11.203  c-1.587,3.694-5.546,5.785-9.488,5.008V496.371z M316.857,506.507c-4.607-1.007-7.525-5.546-6.518-10.153  c0.7-3.208,3.174-5.725,6.365-6.484c5.205-1.246,10.443-2.713,15.588-4.368c4.394-1.715,9.334,0.461,11.049,4.846  c1.715,4.394-0.461,9.334-4.846,11.049c-0.316,0.119-0.64,0.23-0.973,0.316c-5.554,1.792-11.228,3.413-16.868,4.727  C319.408,506.746,318.112,506.771,316.857,506.507z M120.492,456.168c-1.45-0.316-2.799-1.007-3.899-2.014  c-4.266-3.899-8.532-8.029-12.525-12.261c-3.285-3.379-3.217-8.779,0.154-12.064c3.37-3.285,8.779-3.217,12.064,0.154  c0.06,0.06,0.119,0.128,0.179,0.188c3.703,3.916,7.602,7.739,11.587,11.339c3.49,3.165,3.763,8.558,0.597,12.047  C126.601,455.835,123.487,456.825,120.492,456.168z M386.146,476.457c-4.607-1.007-7.525-5.554-6.518-10.153  c0.478-2.176,1.783-4.078,3.643-5.307c4.496-2.961,8.933-6.143,13.191-9.436c3.805-2.781,9.138-1.962,11.928,1.843  c2.679,3.652,2.031,8.771-1.476,11.638c-4.599,3.566-9.385,6.996-14.249,10.238c-1.92,1.263-4.275,1.706-6.518,1.212V476.457z   M74.146,396.563c-2.457-0.529-4.548-2.124-5.716-4.343c-2.739-5.119-5.298-10.469-7.611-15.793  c-1.886-4.326,0.094-9.36,4.42-11.245s9.36,0.094,11.237,4.42l0,0c2.133,4.914,4.496,9.829,7.022,14.598  c2.21,4.164,0.623,9.326-3.541,11.535c-1.792,0.956-3.865,1.229-5.844,0.793L74.146,396.563z M441.084,424.65  c-4.599-1.007-7.517-5.554-6.51-10.162c0.256-1.186,0.768-2.295,1.493-3.268c3.217-4.317,6.305-8.822,9.172-13.37  c2.397-4.053,7.636-5.392,11.689-2.995s5.392,7.636,2.995,11.689c-0.077,0.128-0.162,0.264-0.247,0.392  c-3.106,4.932-6.442,9.803-9.923,14.504C447.748,424.121,444.352,425.375,441.084,424.65z M50.888,324.731  c-3.49-0.768-6.143-3.626-6.629-7.167c-0.802-5.793-1.382-11.672-1.706-17.457c-0.273-4.71,3.319-8.754,8.029-9.035  c4.71-0.273,8.754,3.319,9.035,8.037c0.316,5.333,0.853,10.75,1.604,16.109c0.648,4.667-2.611,8.976-7.278,9.624  c-0.981,0.137-1.988,0.102-2.961-0.111L50.888,324.731L50.888,324.731z M474.931,357.153c-0.205-0.043-0.418-0.094-0.623-0.154  c-4.513-1.348-7.09-6.092-5.742-10.614l0,0c1.485-4.991,2.816-10.136,3.933-15.272c0.998-4.667,5.563-7.662,10.238-6.732  c4.522,0.87,7.474,5.247,6.604,9.769c-0.009,0.051-0.026,0.111-0.034,0.162l-0.154,0.674c-1.16,5.324-2.56,10.878-4.198,16.271  c-1.288,4.283-5.674,6.843-10.034,5.862L474.931,357.153z M53.703,249.265c-4.607-1.007-7.525-5.546-6.518-10.153l0.196-0.904  c1.246-5.691,2.722-11.399,4.385-16.953c1.357-4.513,6.109-7.073,10.631-5.716s7.073,6.109,5.716,10.631l0,0  c-1.544,5.119-2.909,10.418-4.061,15.69l-0.196,0.904C62.85,247.354,58.311,250.272,53.703,249.265z M483.719,282.114  c-3.737-0.819-6.467-4.027-6.689-7.841c-0.316-5.358-0.853-10.785-1.57-16.117c-0.64-4.667,2.628-8.976,7.295-9.607  s8.976,2.628,9.607,7.295c0.785,5.776,1.357,11.646,1.706,17.439c0.273,4.701-3.319,8.737-8.02,9.01  c-0.793,0.051-1.578-0.009-2.355-0.179H483.719z M82.516,178.492c-4.607-1.007-7.525-5.546-6.518-10.153  c0.213-0.973,0.597-1.903,1.126-2.747c3.106-4.914,6.459-9.778,9.957-14.453c2.824-3.771,8.174-4.531,11.945-1.706  c3.771,2.824,4.531,8.174,1.706,11.945l0,0c-3.242,4.326-6.331,8.822-9.198,13.361C89.615,177.758,86.014,179.26,82.516,178.492z   M466.262,208.653c-2.688-0.58-4.932-2.432-6.024-4.957c-2.116-4.906-4.462-9.82-6.988-14.607  c-2.176-4.181-0.546-9.334,3.635-11.501c4.147-2.159,9.249-0.572,11.459,3.541c2.73,5.179,5.273,10.494,7.568,15.81  c1.869,4.326-0.128,9.351-4.454,11.211C469.82,208.858,468.003,209.037,466.262,208.653z" fill="#000000" data-original="#000000" style="" class=""/>
<path xmlns="http://www.w3.org/2000/svg" d="M477.832,145.072h-51.192c-14.112,0-25.596-11.484-25.596-25.596v-8.532c-0.026-14.445,9.121-27.379,22.755-32.183  c15.682-5.52,32.806,1.186,40.834,15.119h13.199c14.112,0,25.596,11.484,25.596,25.596S491.952,145.072,477.832,145.072z   M435.103,93.888c-1.877,0-3.771,0.316-5.631,0.964c-6.8,2.398-11.365,8.856-11.356,16.074v8.541c0,4.701,3.822,8.532,8.532,8.532  h51.192c4.71,0,8.532-3.831,8.532-8.532s-3.822-8.532-8.532-8.532h-18.634c-3.618,0-6.843-2.287-8.046-5.691  C448.695,98.274,442.108,93.888,435.103,93.888z" fill="#000000" data-original="#000000" style="" class=""/>
<path xmlns="http://www.w3.org/2000/svg" d="M238.934,238.924c-2.235,0-4.411-0.879-6.032-2.5c-2.124-2.124-2.969-5.196-2.244-8.105l14.411-57.651h-49.844  l-8.097,20.238c-1.297,3.234-4.437,5.358-7.918,5.358h-34.128c-2.833,0-5.478-1.408-7.065-3.746  c-1.587-2.346-1.911-5.324-0.862-7.952l15.801-39.486l-15.801-39.486c-1.049-2.628-0.725-5.606,0.862-7.952  c1.587-2.346,4.232-3.746,7.065-3.746h34.128c3.49,0,6.621,2.124,7.918,5.358l8.097,20.238h49.844l-14.411-57.651  c-0.725-2.909,0.128-5.981,2.244-8.105c2.124-2.124,5.196-2.969,8.105-2.244l34.128,8.532c2.961,0.742,5.298,3.003,6.143,5.93  l15.289,53.539h36.227c14.112,0,25.596,11.484,25.596,25.596s-11.484,25.596-25.596,25.596h-36.227l-15.289,53.539  c-0.845,2.926-3.182,5.187-6.143,5.93l-34.128,8.532C240.316,238.848,239.625,238.924,238.934,238.924z M189.448,153.604h66.55  c2.628,0,5.111,1.212,6.723,3.285c1.613,2.073,2.193,4.769,1.553,7.32l-13.617,54.46l15.554-3.891l15.708-54.989  c1.049-3.66,4.403-6.186,8.208-6.186h42.66c4.71,0,8.532-3.831,8.532-8.532c0-4.701-3.822-8.532-8.532-8.532h-42.66  c-3.805,0-7.158-2.525-8.208-6.186l-15.708-54.989l-15.554-3.891l13.617,54.46c0.64,2.551,0.06,5.247-1.553,7.32  s-4.095,3.285-6.723,3.285h-66.55c-3.49,0-6.621-2.124-7.918-5.358l-8.097-20.238h-15.75l12.389,30.954  c0.811,2.039,0.811,4.3,0,6.339l-12.389,30.954h15.75l8.097-20.238C182.827,155.728,185.967,153.604,189.448,153.604z" fill="#000000" data-original="#000000" style="" class=""/>
<path xmlns="http://www.w3.org/2000/svg" d="M238.934,443.694c-0.196,0-0.401-0.009-0.606-0.026c-1.271-0.085-127.025-10.81-135.89-161.58  c-0.145-2.338,0.7-4.641,2.312-6.348c1.613-1.715,3.856-2.679,6.211-2.679h17.064c4.701,0,8.532-3.822,8.532-8.532  c0-14.112,11.484-25.596,25.596-25.596h34.128c1.843,0,3.643,0.597,5.119,1.706l13.651,10.238  c14.957,11.22,23.89,29.086,23.89,47.788v25.596c0,8.003-3.822,15.665-10.23,20.468l-18.489,13.873l24.453,19.573  c8.14,6.51,12.807,16.219,12.807,26.637v30.366c0,2.363-0.981,4.633-2.713,6.237C243.166,442.883,241.084,443.694,238.934,443.694z   M120.168,290.117c10.145,106.719,83.93,130.225,110.234,135.242v-20.554c0-5.205-2.329-10.059-6.408-13.327l-24.453-19.573  c-1.126-0.904-2.124-1.937-2.969-3.055c-5.657-7.534-4.13-18.25,3.396-23.907l18.489-13.873c2.133-1.604,3.413-4.155,3.413-6.826  v-25.596c0-13.353-6.382-26.117-17.064-34.128l-11.373-8.532h-31.287c-4.701,0-8.532,3.831-8.532,8.532  c0,14.112-11.484,25.596-25.596,25.596L120.168,290.117L120.168,290.117z" fill="#000000" data-original="#000000" style="" class=""/>
<path xmlns="http://www.w3.org/2000/svg" d="M373.758,392.263c-6.57,0-13.131-2.5-18.122-7.508l-6.817-6.817c-4.829-4.829-7.5-11.262-7.5-18.096v-1.468  c0-4.71-3.822-8.532-8.532-8.532h-7.935c-8.575-0.017-16.527-4.275-21.27-11.407l-22.141-33.207  c-6.22-9.308-5.708-21.441,1.28-30.186l21.219-26.509c4.863-6.1,12.15-9.607,19.974-9.607h17.397c4.71,0,8.532-3.831,8.532-8.532  c0-14.112,11.484-25.596,25.596-25.596h8.532c0.034,0,0.068,0,0.102,0c8.489,0.102,16.407,4.351,21.168,11.382  c46.397,67.011,8.285,137.571-10.256,164.788c-0.887,1.34-1.962,2.653-3.148,3.831C386.846,389.78,380.302,392.263,373.758,392.263z   M323.922,255.989c-2.602,0-5.025,1.169-6.646,3.2l-21.219,26.509c-2.312,2.909-2.491,6.945-0.418,10.059l22.149,33.215  c1.587,2.38,4.232,3.797,7.09,3.805h7.918c14.112,0,25.596,11.484,25.596,25.596v1.468c0,2.244,0.904,4.445,2.5,6.032l6.826,6.826  c3.336,3.353,8.754,3.353,12.09,0.026c0.384-0.384,0.742-0.828,1.058-1.297c20.605-30.246,49.281-89.314,10.315-145.599  c-1.664-2.466-4.36-3.916-7.252-3.959h-8.472c-4.71,0-8.532,3.831-8.532,8.532c0,14.112-11.484,25.596-25.596,25.596h-17.405  V255.989z" fill="#000000" data-original="#000000" style="" class=""/>
<g xmlns="http://www.w3.org/2000/svg">
</g>
<g xmlns="http://www.w3.org/2000/svg">
</g>
<g xmlns="http://www.w3.org/2000/svg">
</g>
<g xmlns="http://www.w3.org/2000/svg">
</g>
<g xmlns="http://www.w3.org/2000/svg">
</g>
<g xmlns="http://www.w3.org/2000/svg">
</g>
<g xmlns="http://www.w3.org/2000/svg">
</g>
<g xmlns="http://www.w3.org/2000/svg">
</g>
<g xmlns="http://www.w3.org/2000/svg">
</g>
<g xmlns="http://www.w3.org/2000/svg">
</g>
<g xmlns="http://www.w3.org/2000/svg">
</g>
<g xmlns="http://www.w3.org/2000/svg">
</g>
<g xmlns="http://www.w3.org/2000/svg">
</g>
<g xmlns="http://www.w3.org/2000/svg">
</g>
<g xmlns="http://www.w3.org/2000/svg">
</g>
</g></svg>
